<mxfile host="65bd71144e">
    <diagram id="0ocSRQgTbW_Y4nhS5JNr" name="Page-1">
        <mxGraphModel dx="3714" dy="1293" grid="0" gridSize="10" guides="1" tooltips="1" connect="1" arrows="1" fold="1" page="0" pageScale="1" pageWidth="827" pageHeight="1169" background="#2B2B2B" math="0" shadow="0">
            <root>
                <mxCell id="0"/>
                <mxCell id="1" parent="0"/>
                <mxCell id="15" style="edgeStyle=none;html=1;entryX=0.5;entryY=0;entryDx=0;entryDy=0;strokeWidth=2;" parent="1" source="3" target="13" edge="1">
                    <mxGeometry relative="1" as="geometry"/>
                </mxCell>
                <mxCell id="3" value="Program Start" style="rounded=0;whiteSpace=wrap;html=1;fillColor=#60a917;fontColor=#000000;strokeColor=#2D7600;fontStyle=1" parent="1" vertex="1">
                    <mxGeometry x="-450" y="-280" width="120" height="40" as="geometry"/>
                </mxCell>
                <mxCell id="4" style="edgeStyle=none;html=1;fontColor=#000000;entryX=0.5;entryY=0;entryDx=0;entryDy=0;exitX=0.5;exitY=1;exitDx=0;exitDy=0;strokeWidth=2;" parent="1" source="9" target="10" edge="1">
                    <mxGeometry relative="1" as="geometry">
                        <mxPoint x="-420" y="70" as="targetPoint"/>
                        <Array as="points">
                            <mxPoint x="-390" y="120"/>
                            <mxPoint x="-390" y="160"/>
                        </Array>
                    </mxGeometry>
                </mxCell>
                <mxCell id="5" style="edgeStyle=none;html=1;exitX=0.5;exitY=1;exitDx=0;exitDy=0;fontSize=11;fontColor=#FFFF00;entryX=0.5;entryY=0;entryDx=0;entryDy=0;strokeWidth=2;" parent="1" source="6" target="9" edge="1">
                    <mxGeometry relative="1" as="geometry">
                        <Array as="points">
                            <mxPoint x="-390" y="20"/>
                        </Array>
                    </mxGeometry>
                </mxCell>
                <mxCell id="6" value="User Enters&lt;br&gt;Name" style="shape=parallelogram;perimeter=parallelogramPerimeter;whiteSpace=wrap;html=1;fixedSize=1;fillColor=#f8cecc;strokeColor=#b85450;fontColor=#000000;fontStyle=1" parent="1" vertex="1">
                    <mxGeometry x="-460" y="-60" width="140" height="40" as="geometry"/>
                </mxCell>
                <mxCell id="21" style="edgeStyle=none;html=1;entryX=0.5;entryY=0;entryDx=0;entryDy=0;strokeWidth=2;exitX=0.5;exitY=1;exitDx=0;exitDy=0;" parent="1" source="10" target="20" edge="1">
                    <mxGeometry relative="1" as="geometry">
                        <mxPoint x="-390" y="310" as="sourcePoint"/>
                    </mxGeometry>
                </mxCell>
                <mxCell id="8" style="edgeStyle=none;html=1;fontColor=#000000;entryX=0;entryY=0.5;entryDx=0;entryDy=0;strokeWidth=2;dashed=1;exitX=1;exitY=0.5;exitDx=0;exitDy=0;" parent="1" source="9" target="12" edge="1">
                    <mxGeometry relative="1" as="geometry">
                        <mxPoint x="-160" y="170" as="targetPoint"/>
                        <Array as="points">
                            <mxPoint x="-260" y="70"/>
                        </Array>
                    </mxGeometry>
                </mxCell>
                <mxCell id="9" value="Validate" style="rounded=0;whiteSpace=wrap;html=1;fontColor=#ffffff;fillColor=#d80073;strokeColor=#A50040;" parent="1" vertex="1">
                    <mxGeometry x="-450" y="50" width="120" height="40" as="geometry"/>
                </mxCell>
                <mxCell id="10" value="Pass" style="rounded=1;whiteSpace=wrap;html=1;fontColor=#ffffff;strokeColor=#005700;fillColor=#008a00;" parent="1" vertex="1">
                    <mxGeometry x="-415" y="160" width="50" height="20" as="geometry"/>
                </mxCell>
                <mxCell id="19" style="edgeStyle=none;html=1;entryX=1;entryY=0.5;entryDx=0;entryDy=0;strokeWidth=2;dashed=1;" parent="1" source="12" target="6" edge="1">
                    <mxGeometry relative="1" as="geometry">
                        <Array as="points">
                            <mxPoint x="-215" y="-40"/>
                        </Array>
                    </mxGeometry>
                </mxCell>
                <mxCell id="12" value="Fail" style="rounded=1;whiteSpace=wrap;html=1;fontColor=#ffffff;strokeColor=#6F0000;fillColor=#a20025;" parent="1" vertex="1">
                    <mxGeometry x="-240" y="60" width="50" height="20" as="geometry"/>
                </mxCell>
                <mxCell id="16" style="edgeStyle=none;html=1;entryX=0.5;entryY=0;entryDx=0;entryDy=0;strokeWidth=2;" parent="1" source="13" target="6" edge="1">
                    <mxGeometry relative="1" as="geometry">
                        <Array as="points"/>
                    </mxGeometry>
                </mxCell>
                <mxCell id="13" value="Display welcome message" style="shape=hexagon;perimeter=hexagonPerimeter2;whiteSpace=wrap;html=1;fixedSize=1;labelBorderColor=none;fontSize=12;fillColor=#1ba1e2;strokeColor=#006EAF;fontColor=#ffffff;" parent="1" vertex="1">
                    <mxGeometry x="-450" y="-190" width="120" height="80" as="geometry"/>
                </mxCell>
                <mxCell id="30" style="edgeStyle=none;html=1;entryX=0.5;entryY=0;entryDx=0;entryDy=0;strokeWidth=2;" parent="1" source="20" target="24" edge="1">
                    <mxGeometry relative="1" as="geometry"/>
                </mxCell>
                <mxCell id="20" value="Display Main Menu" style="shape=hexagon;perimeter=hexagonPerimeter2;whiteSpace=wrap;html=1;fixedSize=1;labelBorderColor=none;fontSize=12;fillColor=#1ba1e2;strokeColor=#006EAF;fontColor=#ffffff;" parent="1" vertex="1">
                    <mxGeometry x="-450" y="220" width="120" height="80" as="geometry"/>
                </mxCell>
                <mxCell id="23" style="edgeStyle=none;html=1;exitX=0.5;exitY=1;exitDx=0;exitDy=0;fontSize=11;fontColor=#FFFF00;entryX=0.5;entryY=0;entryDx=0;entryDy=0;strokeWidth=2;" parent="1" source="24" target="26" edge="1">
                    <mxGeometry relative="1" as="geometry">
                        <Array as="points">
                            <mxPoint x="-390" y="430"/>
                        </Array>
                    </mxGeometry>
                </mxCell>
                <mxCell id="24" value="User Enters&lt;br&gt;Key" style="shape=parallelogram;perimeter=parallelogramPerimeter;whiteSpace=wrap;html=1;fixedSize=1;fillColor=#f8cecc;strokeColor=#b85450;fontColor=#000000;fontStyle=1" parent="1" vertex="1">
                    <mxGeometry x="-460" y="350" width="140" height="40" as="geometry"/>
                </mxCell>
                <mxCell id="25" style="edgeStyle=none;html=1;fontColor=#000000;entryX=0;entryY=0.5;entryDx=0;entryDy=0;strokeWidth=2;dashed=1;exitX=1;exitY=0.5;exitDx=0;exitDy=0;" parent="1" source="26" target="29" edge="1">
                    <mxGeometry relative="1" as="geometry">
                        <mxPoint x="-160" y="580" as="targetPoint"/>
                        <Array as="points">
                            <mxPoint x="-260" y="480"/>
                        </Array>
                    </mxGeometry>
                </mxCell>
                <mxCell id="70" style="edgeStyle=none;html=1;fontSize=17;fontColor=#00CC00;strokeWidth=2;" parent="1" source="26" edge="1">
                    <mxGeometry relative="1" as="geometry">
                        <mxPoint x="-389.99999999999955" y="570" as="targetPoint"/>
                    </mxGeometry>
                </mxCell>
                <mxCell id="26" value="Validate" style="rounded=0;whiteSpace=wrap;html=1;fontColor=#ffffff;fillColor=#d80073;strokeColor=#A50040;" parent="1" vertex="1">
                    <mxGeometry x="-450" y="460" width="120" height="40" as="geometry"/>
                </mxCell>
                <mxCell id="38" style="edgeStyle=none;html=1;exitX=1;exitY=1;exitDx=0;exitDy=0;entryX=0.5;entryY=0;entryDx=0;entryDy=0;strokeWidth=2;" parent="1" source="27" target="46" edge="1">
                    <mxGeometry relative="1" as="geometry">
                        <mxPoint x="-259.99999999999955" y="960" as="targetPoint"/>
                        <Array as="points">
                            <mxPoint x="-365" y="658"/>
                            <mxPoint x="-303" y="658"/>
                            <mxPoint x="-303" y="705"/>
                        </Array>
                    </mxGeometry>
                </mxCell>
                <mxCell id="39" style="edgeStyle=none;html=1;exitX=0;exitY=1;exitDx=0;exitDy=0;entryX=0.5;entryY=0;entryDx=0;entryDy=0;strokeWidth=2;" parent="1" source="27" target="45" edge="1">
                    <mxGeometry relative="1" as="geometry">
                        <mxPoint x="-19.999999999999545" y="960" as="targetPoint"/>
                        <Array as="points">
                            <mxPoint x="-415" y="654"/>
                            <mxPoint x="-488" y="654"/>
                        </Array>
                    </mxGeometry>
                </mxCell>
                <mxCell id="355" style="edgeStyle=none;html=1;strokeWidth=2;exitX=0;exitY=0;exitDx=0;exitDy=0;" parent="1" source="27" target="44" edge="1">
                    <mxGeometry relative="1" as="geometry"/>
                </mxCell>
                <mxCell id="363" style="edgeStyle=none;html=1;entryX=0;entryY=0.5;entryDx=0;entryDy=0;fontColor=#000000;strokeWidth=2;exitX=1;exitY=0;exitDx=0;exitDy=0;" parent="1" source="27" target="47" edge="1">
                    <mxGeometry relative="1" as="geometry"/>
                </mxCell>
                <mxCell id="27" value="Pass" style="rounded=1;whiteSpace=wrap;html=1;fontColor=#ffffff;strokeColor=#005700;fillColor=#008a00;" parent="1" vertex="1">
                    <mxGeometry x="-415" y="574" width="50" height="20" as="geometry"/>
                </mxCell>
                <mxCell id="28" style="edgeStyle=none;html=1;entryX=1;entryY=0.5;entryDx=0;entryDy=0;strokeWidth=2;dashed=1;" parent="1" source="29" target="24" edge="1">
                    <mxGeometry relative="1" as="geometry">
                        <Array as="points">
                            <mxPoint x="-215" y="370"/>
                        </Array>
                    </mxGeometry>
                </mxCell>
                <mxCell id="29" value="Fail" style="rounded=1;whiteSpace=wrap;html=1;fontColor=#ffffff;strokeColor=#6F0000;fillColor=#a20025;" parent="1" vertex="1">
                    <mxGeometry x="-240" y="470" width="50" height="20" as="geometry"/>
                </mxCell>
                <mxCell id="42" value="C" style="edgeLabel;html=1;align=center;verticalAlign=middle;resizable=0;points=[];fontStyle=1;fontSize=17;fontColor=#00CC00;" parent="1" vertex="1" connectable="0">
                    <mxGeometry x="-429.99571428571426" y="559" as="geometry">
                        <mxPoint x="63" y="66" as="offset"/>
                    </mxGeometry>
                </mxCell>
                <mxCell id="43" value="D" style="edgeLabel;html=1;align=center;verticalAlign=middle;resizable=0;points=[];fontStyle=1;fontSize=17;fontColor=#00CC00;" parent="1" vertex="1" connectable="0">
                    <mxGeometry x="-477.99571428571426" y="559" as="geometry">
                        <mxPoint x="63" y="66" as="offset"/>
                    </mxGeometry>
                </mxCell>
                <mxCell id="322" style="edgeStyle=none;jumpStyle=arc;html=1;entryX=0.5;entryY=0;entryDx=0;entryDy=0;fontSize=15;fontColor=#00CC00;strokeColor=default;strokeWidth=2;" parent="1" source="44" target="317" edge="1">
                    <mxGeometry relative="1" as="geometry"/>
                </mxCell>
                <mxCell id="44" value="Display Quiz Hub Menu" style="shape=hexagon;perimeter=hexagonPerimeter2;whiteSpace=wrap;html=1;fixedSize=1;labelBorderColor=none;fontSize=12;fillColor=#1ba1e2;strokeColor=#006EAF;fontColor=#ffffff;" parent="1" vertex="1">
                    <mxGeometry x="-929" y="536" width="120" height="80" as="geometry"/>
                </mxCell>
                <mxCell id="54" style="edgeStyle=none;html=1;fontSize=17;fontColor=#00CC00;strokeWidth=2;" parent="1" source="45" edge="1">
                    <mxGeometry relative="1" as="geometry">
                        <mxPoint x="-488" y="956" as="targetPoint"/>
                    </mxGeometry>
                </mxCell>
                <mxCell id="45" value="Display Exit Game Message" style="shape=hexagon;perimeter=hexagonPerimeter2;whiteSpace=wrap;html=1;fixedSize=1;labelBorderColor=none;fontSize=12;fillColor=#1ba1e2;strokeColor=#006EAF;fontColor=#ffffff;" parent="1" vertex="1">
                    <mxGeometry x="-548" y="767" width="120" height="80" as="geometry"/>
                </mxCell>
                <mxCell id="263" style="edgeStyle=none;jumpStyle=arc;html=1;entryX=0.5;entryY=0;entryDx=0;entryDy=0;fontSize=15;fontColor=#00CC00;strokeColor=default;strokeWidth=2;" parent="1" source="46" target="262" edge="1">
                    <mxGeometry relative="1" as="geometry"/>
                </mxCell>
                <mxCell id="46" value="Display Submit Feedback" style="shape=hexagon;perimeter=hexagonPerimeter2;whiteSpace=wrap;html=1;fixedSize=1;labelBorderColor=none;fontSize=12;fillColor=#1ba1e2;strokeColor=#006EAF;fontColor=#ffffff;" parent="1" vertex="1">
                    <mxGeometry x="-363" y="767" width="120" height="80" as="geometry"/>
                </mxCell>
                <mxCell id="63" style="edgeStyle=none;html=1;entryX=0.5;entryY=0;entryDx=0;entryDy=0;fontSize=17;fontColor=#00CC00;strokeWidth=2;" parent="1" source="47" target="57" edge="1">
                    <mxGeometry relative="1" as="geometry"/>
                </mxCell>
                <mxCell id="47" value="Display F1 Info Hub Menu" style="shape=hexagon;perimeter=hexagonPerimeter2;whiteSpace=wrap;html=1;fixedSize=1;labelBorderColor=none;fontSize=12;fillColor=#1ba1e2;strokeColor=#006EAF;fontColor=#ffffff;" parent="1" vertex="1">
                    <mxGeometry x="199" y="536" width="120" height="80" as="geometry"/>
                </mxCell>
                <mxCell id="53" value="Terminate Program" style="rounded=0;whiteSpace=wrap;html=1;fillColor=#e51400;fontColor=#ffffff;strokeColor=#B20000;" parent="1" vertex="1">
                    <mxGeometry x="-546" y="957" width="120" height="40" as="geometry"/>
                </mxCell>
                <mxCell id="56" style="edgeStyle=none;html=1;exitX=0.5;exitY=1;exitDx=0;exitDy=0;fontSize=11;fontColor=#FFFF00;entryX=0.5;entryY=0;entryDx=0;entryDy=0;strokeWidth=2;" parent="1" source="57" target="59" edge="1">
                    <mxGeometry relative="1" as="geometry">
                        <Array as="points">
                            <mxPoint x="260" y="783"/>
                        </Array>
                    </mxGeometry>
                </mxCell>
                <mxCell id="57" value="User Enters&lt;br&gt;Key" style="shape=parallelogram;perimeter=parallelogramPerimeter;whiteSpace=wrap;html=1;fixedSize=1;fillColor=#f8cecc;strokeColor=#b85450;fontColor=#000000;fontStyle=1" parent="1" vertex="1">
                    <mxGeometry x="190" y="671" width="140" height="40" as="geometry"/>
                </mxCell>
                <mxCell id="58" style="edgeStyle=none;html=1;fontColor=#000000;entryX=0.5;entryY=1;entryDx=0;entryDy=0;strokeWidth=2;dashed=1;exitX=1;exitY=0.5;exitDx=0;exitDy=0;" parent="1" source="59" target="62" edge="1">
                    <mxGeometry relative="1" as="geometry">
                        <mxPoint x="490" y="933" as="targetPoint"/>
                        <Array as="points">
                            <mxPoint x="431" y="801"/>
                        </Array>
                    </mxGeometry>
                </mxCell>
                <mxCell id="358" style="edgeStyle=none;html=1;strokeWidth=2;" parent="1" source="59" edge="1">
                    <mxGeometry relative="1" as="geometry">
                        <mxPoint x="260" y="860" as="targetPoint"/>
                    </mxGeometry>
                </mxCell>
                <mxCell id="59" value="Validate" style="rounded=0;whiteSpace=wrap;html=1;fontColor=#ffffff;fillColor=#d80073;strokeColor=#A50040;" parent="1" vertex="1">
                    <mxGeometry x="200" y="781" width="120" height="40" as="geometry"/>
                </mxCell>
                <mxCell id="78" style="edgeStyle=none;html=1;fontSize=17;fontColor=#00CC00;strokeWidth=2;" parent="1" source="60" edge="1">
                    <mxGeometry relative="1" as="geometry">
                        <mxPoint x="-55" y="1032" as="targetPoint"/>
                        <Array as="points">
                            <mxPoint x="-55" y="872"/>
                        </Array>
                    </mxGeometry>
                </mxCell>
                <mxCell id="79" style="edgeStyle=none;html=1;exitX=0;exitY=1;exitDx=0;exitDy=0;entryX=0.5;entryY=0;entryDx=0;entryDy=0;fontSize=17;fontColor=#00CC00;strokeWidth=2;" parent="1" source="60" target="72" edge="1">
                    <mxGeometry relative="1" as="geometry">
                        <Array as="points">
                            <mxPoint x="235" y="1002"/>
                            <mxPoint x="279" y="1002"/>
                        </Array>
                    </mxGeometry>
                </mxCell>
                <mxCell id="80" style="edgeStyle=none;html=1;exitX=1;exitY=1;exitDx=0;exitDy=0;fontSize=17;fontColor=#00CC00;strokeWidth=2;entryX=0.5;entryY=0;entryDx=0;entryDy=0;entryPerimeter=0;" parent="1" source="60" target="136" edge="1">
                    <mxGeometry relative="1" as="geometry">
                        <mxPoint x="909" y="982" as="targetPoint"/>
                        <Array as="points">
                            <mxPoint x="285" y="982"/>
                            <mxPoint x="619" y="982"/>
                            <mxPoint x="909" y="982"/>
                        </Array>
                    </mxGeometry>
                </mxCell>
                <mxCell id="81" style="edgeStyle=none;html=1;exitX=1;exitY=0.5;exitDx=0;exitDy=0;entryX=0.5;entryY=0;entryDx=0;entryDy=0;fontSize=17;fontColor=#00CC00;strokeWidth=2;entryPerimeter=0;" parent="1" source="60" target="151" edge="1">
                    <mxGeometry relative="1" as="geometry">
                        <Array as="points">
                            <mxPoint x="584" y="872"/>
                            <mxPoint x="912" y="872"/>
                            <mxPoint x="1202" y="872"/>
                        </Array>
                    </mxGeometry>
                </mxCell>
                <mxCell id="60" value="Pass" style="rounded=1;whiteSpace=wrap;html=1;fontColor=#ffffff;strokeColor=#005700;fillColor=#008a00;" parent="1" vertex="1">
                    <mxGeometry x="237" y="862" width="50" height="20" as="geometry"/>
                </mxCell>
                <mxCell id="61" style="edgeStyle=none;html=1;entryX=1;entryY=0.5;entryDx=0;entryDy=0;strokeWidth=2;dashed=1;" parent="1" source="62" target="57" edge="1">
                    <mxGeometry relative="1" as="geometry">
                        <Array as="points">
                            <mxPoint x="430" y="691"/>
                        </Array>
                    </mxGeometry>
                </mxCell>
                <mxCell id="62" value="Fail" style="rounded=1;whiteSpace=wrap;html=1;fontColor=#ffffff;strokeColor=#6F0000;fillColor=#a20025;" parent="1" vertex="1">
                    <mxGeometry x="407" y="736" width="50" height="20" as="geometry"/>
                </mxCell>
                <mxCell id="96" style="edgeStyle=none;html=1;entryX=0.463;entryY=0.039;entryDx=0;entryDy=0;entryPerimeter=0;fontSize=17;fontColor=#00CC00;strokeWidth=2;" parent="1" source="71" target="88" edge="1">
                    <mxGeometry relative="1" as="geometry"/>
                </mxCell>
                <mxCell id="71" value="Display F1 Fact" style="shape=hexagon;perimeter=hexagonPerimeter2;whiteSpace=wrap;html=1;fixedSize=1;labelBorderColor=none;fontSize=12;fillColor=#1ba1e2;strokeColor=#006EAF;fontColor=#ffffff;" parent="1" vertex="1">
                    <mxGeometry x="-115" y="1152" width="120" height="80" as="geometry"/>
                </mxCell>
                <mxCell id="72" value="Display Select Track" style="shape=hexagon;perimeter=hexagonPerimeter2;whiteSpace=wrap;html=1;fixedSize=1;labelBorderColor=none;fontSize=12;fillColor=#1ba1e2;strokeColor=#006EAF;fontColor=#ffffff;" parent="1" vertex="1">
                    <mxGeometry x="219" y="1062" width="120" height="80" as="geometry"/>
                </mxCell>
                <mxCell id="145" style="edgeStyle=none;html=1;entryX=0.5;entryY=0;entryDx=0;entryDy=0;fontSize=17;fontColor=#00CC00;strokeWidth=2;" parent="1" source="73" target="139" edge="1">
                    <mxGeometry relative="1" as="geometry"/>
                </mxCell>
                <mxCell id="73" value="Display F1 2022 Calendar" style="shape=hexagon;perimeter=hexagonPerimeter2;whiteSpace=wrap;html=1;fixedSize=1;labelBorderColor=none;fontSize=12;fillColor=#1ba1e2;strokeColor=#006EAF;fontColor=#ffffff;" parent="1" vertex="1">
                    <mxGeometry x="849" y="1241" width="120" height="80" as="geometry"/>
                </mxCell>
                <mxCell id="161" style="edgeStyle=none;jumpStyle=arc;html=1;entryX=0.5;entryY=0;entryDx=0;entryDy=0;fontSize=17;fontColor=#00CC00;strokeWidth=2;" parent="1" source="74" target="153" edge="1">
                    <mxGeometry relative="1" as="geometry"/>
                </mxCell>
                <mxCell id="74" value="Display F1 2022 Drivers" style="shape=hexagon;perimeter=hexagonPerimeter2;whiteSpace=wrap;html=1;fixedSize=1;labelBorderColor=none;fontSize=12;fillColor=#1ba1e2;strokeColor=#006EAF;fontColor=#ffffff;" parent="1" vertex="1">
                    <mxGeometry x="1143" y="1241" width="120" height="80" as="geometry"/>
                </mxCell>
                <mxCell id="87" style="edgeStyle=none;html=1;exitX=0.5;exitY=1;exitDx=0;exitDy=0;fontSize=11;fontColor=#FFFF00;entryX=0.5;entryY=0;entryDx=0;entryDy=0;strokeWidth=2;" parent="1" source="88" target="90" edge="1">
                    <mxGeometry relative="1" as="geometry">
                        <Array as="points">
                            <mxPoint x="-51" y="1351"/>
                        </Array>
                    </mxGeometry>
                </mxCell>
                <mxCell id="88" value="User Enters&lt;br&gt;Key" style="shape=parallelogram;perimeter=parallelogramPerimeter;whiteSpace=wrap;html=1;fixedSize=1;fillColor=#f8cecc;strokeColor=#b85450;fontColor=#000000;fontStyle=1" parent="1" vertex="1">
                    <mxGeometry x="-121" y="1271" width="140" height="40" as="geometry"/>
                </mxCell>
                <mxCell id="95" style="edgeStyle=none;html=1;entryX=0;entryY=0.5;entryDx=0;entryDy=0;fontSize=17;fontColor=#00CC00;strokeWidth=2;dashed=1;" parent="1" source="90" target="92" edge="1">
                    <mxGeometry relative="1" as="geometry"/>
                </mxCell>
                <mxCell id="99" style="edgeStyle=none;html=1;entryX=0.5;entryY=0;entryDx=0;entryDy=0;fontSize=17;fontColor=#00CC00;strokeWidth=2;" parent="1" source="90" target="97" edge="1">
                    <mxGeometry relative="1" as="geometry"/>
                </mxCell>
                <mxCell id="90" value="Validate" style="rounded=0;whiteSpace=wrap;html=1;fontColor=#ffffff;fillColor=#d80073;strokeColor=#A50040;" parent="1" vertex="1">
                    <mxGeometry x="-111" y="1381" width="120" height="40" as="geometry"/>
                </mxCell>
                <mxCell id="91" style="edgeStyle=none;html=1;entryX=1;entryY=0.5;entryDx=0;entryDy=0;strokeWidth=2;dashed=1;" parent="1" source="92" target="88" edge="1">
                    <mxGeometry relative="1" as="geometry">
                        <Array as="points">
                            <mxPoint x="69" y="1291"/>
                        </Array>
                    </mxGeometry>
                </mxCell>
                <mxCell id="92" value="Fail" style="rounded=1;whiteSpace=wrap;html=1;fontColor=#ffffff;strokeColor=#6F0000;fillColor=#a20025;" parent="1" vertex="1">
                    <mxGeometry x="45" y="1391" width="50" height="20" as="geometry"/>
                </mxCell>
                <mxCell id="103" style="edgeStyle=none;html=1;entryX=1;entryY=0.5;entryDx=0;entryDy=0;fontSize=17;fontColor=#00CC00;strokeWidth=2;entryPerimeter=0;" parent="1" source="97" target="105" edge="1">
                    <mxGeometry relative="1" as="geometry">
                        <Array as="points">
                            <mxPoint x="109" y="1481"/>
                            <mxPoint x="109" y="1271"/>
                            <mxPoint x="49" y="1271"/>
                            <mxPoint x="49" y="1071"/>
                        </Array>
                    </mxGeometry>
                </mxCell>
                <mxCell id="383" style="edgeStyle=none;html=1;exitX=0;exitY=1;exitDx=0;exitDy=0;" edge="1" parent="1" source="97">
                    <mxGeometry relative="1" as="geometry">
                        <mxPoint x="-242" y="1667" as="targetPoint"/>
                        <Array as="points">
                            <mxPoint x="-76" y="1726"/>
                            <mxPoint x="-242" y="1726"/>
                        </Array>
                    </mxGeometry>
                </mxCell>
                <mxCell id="384" style="edgeStyle=none;html=1;exitX=1;exitY=1;exitDx=0;exitDy=0;" edge="1" parent="1" source="97">
                    <mxGeometry relative="1" as="geometry">
                        <mxPoint x="-26" y="1636" as="targetPoint"/>
                    </mxGeometry>
                </mxCell>
                <mxCell id="97" value="Pass" style="rounded=1;whiteSpace=wrap;html=1;fontColor=#ffffff;strokeColor=#005700;fillColor=#008a00;" parent="1" vertex="1">
                    <mxGeometry x="-76" y="1471" width="50" height="20" as="geometry"/>
                </mxCell>
                <mxCell id="107" style="edgeStyle=none;html=1;entryX=0.5;entryY=0;entryDx=0;entryDy=0;fontSize=17;fontColor=#00CC00;strokeWidth=2;" parent="1" source="105" target="71" edge="1">
                    <mxGeometry relative="1" as="geometry"/>
                </mxCell>
                <mxCell id="105" value="Retrieve Data" style="shape=cylinder3;whiteSpace=wrap;html=1;boundedLbl=1;backgroundOutline=1;size=15;labelBorderColor=none;fontSize=12;fontColor=#ffffff;fillColor=#76608a;strokeColor=#432D57;" parent="1" vertex="1">
                    <mxGeometry x="-85" y="1031" width="60" height="80" as="geometry"/>
                </mxCell>
                <mxCell id="108" style="edgeStyle=none;html=1;entryX=0.463;entryY=0.039;entryDx=0;entryDy=0;entryPerimeter=0;fontSize=17;fontColor=#00CC00;strokeWidth=2;" parent="1" target="110" edge="1">
                    <mxGeometry relative="1" as="geometry">
                        <mxPoint x="284.4141012909631" y="1142" as="sourcePoint"/>
                    </mxGeometry>
                </mxCell>
                <mxCell id="109" style="edgeStyle=none;html=1;exitX=0.5;exitY=1;exitDx=0;exitDy=0;fontSize=11;fontColor=#FFFF00;entryX=0.5;entryY=0;entryDx=0;entryDy=0;strokeWidth=2;" parent="1" source="110" target="113" edge="1">
                    <mxGeometry relative="1" as="geometry">
                        <Array as="points">
                            <mxPoint x="289" y="1261"/>
                        </Array>
                    </mxGeometry>
                </mxCell>
                <mxCell id="110" value="User Enters&lt;br&gt;Key" style="shape=parallelogram;perimeter=parallelogramPerimeter;whiteSpace=wrap;html=1;fixedSize=1;fillColor=#f8cecc;strokeColor=#b85450;fontColor=#000000;fontStyle=1" parent="1" vertex="1">
                    <mxGeometry x="219" y="1181" width="140" height="40" as="geometry"/>
                </mxCell>
                <mxCell id="111" style="edgeStyle=none;html=1;entryX=0;entryY=0.5;entryDx=0;entryDy=0;fontSize=17;fontColor=#00CC00;strokeWidth=2;dashed=1;" parent="1" source="113" target="115" edge="1">
                    <mxGeometry relative="1" as="geometry"/>
                </mxCell>
                <mxCell id="112" style="edgeStyle=none;html=1;entryX=0.5;entryY=0;entryDx=0;entryDy=0;fontSize=17;fontColor=#00CC00;strokeWidth=2;" parent="1" source="113" target="116" edge="1">
                    <mxGeometry relative="1" as="geometry"/>
                </mxCell>
                <mxCell id="113" value="Validate" style="rounded=0;whiteSpace=wrap;html=1;fontColor=#ffffff;fillColor=#d80073;strokeColor=#A50040;" parent="1" vertex="1">
                    <mxGeometry x="229" y="1291" width="120" height="40" as="geometry"/>
                </mxCell>
                <mxCell id="114" style="edgeStyle=none;html=1;entryX=1;entryY=0.5;entryDx=0;entryDy=0;strokeWidth=2;dashed=1;" parent="1" source="115" target="72" edge="1">
                    <mxGeometry relative="1" as="geometry">
                        <Array as="points">
                            <mxPoint x="409" y="1102"/>
                        </Array>
                    </mxGeometry>
                </mxCell>
                <mxCell id="115" value="Fail" style="rounded=1;whiteSpace=wrap;html=1;fontColor=#ffffff;strokeColor=#6F0000;fillColor=#a20025;" parent="1" vertex="1">
                    <mxGeometry x="385" y="1301" width="50" height="20" as="geometry"/>
                </mxCell>
                <mxCell id="120" style="edgeStyle=none;html=1;entryX=0.5;entryY=0;entryDx=0;entryDy=0;entryPerimeter=0;fontSize=17;fontColor=#00CC00;strokeWidth=2;exitX=0.5;exitY=1;exitDx=0;exitDy=0;" parent="1" source="116" target="118" edge="1">
                    <mxGeometry relative="1" as="geometry">
                        <Array as="points"/>
                    </mxGeometry>
                </mxCell>
                <mxCell id="121" value="Track Name" style="edgeLabel;html=1;align=center;verticalAlign=middle;resizable=0;points=[];fontSize=17;fontColor=#00CC00;" parent="120" vertex="1" connectable="0">
                    <mxGeometry x="-0.2023" relative="1" as="geometry">
                        <mxPoint y="1" as="offset"/>
                    </mxGeometry>
                </mxCell>
                <mxCell id="171" style="edgeStyle=none;jumpStyle=arc;html=1;exitX=1;exitY=0;exitDx=0;exitDy=0;fontSize=15;fontColor=#00CC00;strokeWidth=2;" parent="1" source="116" edge="1">
                    <mxGeometry relative="1" as="geometry">
                        <mxPoint x="569" y="1382" as="targetPoint"/>
                    </mxGeometry>
                </mxCell>
                <mxCell id="116" value="Pass" style="rounded=1;whiteSpace=wrap;html=1;fontColor=#ffffff;strokeColor=#005700;fillColor=#008a00;" parent="1" vertex="1">
                    <mxGeometry x="264" y="1381" width="50" height="20" as="geometry"/>
                </mxCell>
                <mxCell id="130" style="edgeStyle=none;html=1;entryX=0.5;entryY=0;entryDx=0;entryDy=0;fontSize=17;fontColor=#00CC00;strokeWidth=2;" parent="1" source="117" target="124" edge="1">
                    <mxGeometry relative="1" as="geometry">
                        <Array as="points">
                            <mxPoint x="289" y="1804"/>
                        </Array>
                    </mxGeometry>
                </mxCell>
                <mxCell id="117" value="Display Selected Track Info" style="shape=hexagon;perimeter=hexagonPerimeter2;whiteSpace=wrap;html=1;fixedSize=1;labelBorderColor=none;fontSize=12;fillColor=#1ba1e2;strokeColor=#006EAF;fontColor=#ffffff;" parent="1" vertex="1">
                    <mxGeometry x="229" y="1664" width="120" height="80" as="geometry"/>
                </mxCell>
                <mxCell id="119" style="edgeStyle=none;html=1;entryX=0.5;entryY=0;entryDx=0;entryDy=0;fontSize=17;fontColor=#00CC00;strokeWidth=2;" parent="1" source="118" target="117" edge="1">
                    <mxGeometry relative="1" as="geometry"/>
                </mxCell>
                <mxCell id="118" value="Retrieve Data" style="shape=cylinder3;whiteSpace=wrap;html=1;boundedLbl=1;backgroundOutline=1;size=15;labelBorderColor=none;fontSize=12;fontColor=#ffffff;fillColor=#76608a;strokeColor=#432D57;" parent="1" vertex="1">
                    <mxGeometry x="259" y="1524" width="60" height="80" as="geometry"/>
                </mxCell>
                <mxCell id="123" style="edgeStyle=none;html=1;exitX=0.5;exitY=1;exitDx=0;exitDy=0;fontSize=11;fontColor=#FFFF00;entryX=0.5;entryY=0;entryDx=0;entryDy=0;strokeWidth=2;" parent="1" source="124" target="127" edge="1">
                    <mxGeometry relative="1" as="geometry">
                        <Array as="points"/>
                    </mxGeometry>
                </mxCell>
                <mxCell id="124" value="User Enters&lt;br&gt;Key" style="shape=parallelogram;perimeter=parallelogramPerimeter;whiteSpace=wrap;html=1;fixedSize=1;fillColor=#f8cecc;strokeColor=#b85450;fontColor=#000000;fontStyle=1" parent="1" vertex="1">
                    <mxGeometry x="219" y="1814" width="140" height="40" as="geometry"/>
                </mxCell>
                <mxCell id="125" style="edgeStyle=none;html=1;entryX=0;entryY=0.5;entryDx=0;entryDy=0;fontSize=17;fontColor=#00CC00;strokeWidth=2;dashed=1;" parent="1" source="127" target="128" edge="1">
                    <mxGeometry relative="1" as="geometry"/>
                </mxCell>
                <mxCell id="126" style="edgeStyle=none;html=1;entryX=0.5;entryY=0;entryDx=0;entryDy=0;fontSize=17;fontColor=#00CC00;strokeWidth=2;" parent="1" source="127" target="129" edge="1">
                    <mxGeometry relative="1" as="geometry"/>
                </mxCell>
                <mxCell id="127" value="Validate" style="rounded=0;whiteSpace=wrap;html=1;fontColor=#ffffff;fillColor=#d80073;strokeColor=#A50040;" parent="1" vertex="1">
                    <mxGeometry x="229" y="1924" width="120" height="40" as="geometry"/>
                </mxCell>
                <mxCell id="128" value="Fail" style="rounded=1;whiteSpace=wrap;html=1;fontColor=#ffffff;strokeColor=#6F0000;fillColor=#a20025;" parent="1" vertex="1">
                    <mxGeometry x="385" y="1934" width="50" height="20" as="geometry"/>
                </mxCell>
                <mxCell id="190" style="edgeStyle=none;jumpStyle=arc;html=1;exitX=0;exitY=0;exitDx=0;exitDy=0;entryX=0;entryY=0.5;entryDx=0;entryDy=0;fontSize=15;fontColor=#00CC00;strokeWidth=2;" parent="1" source="129" target="72" edge="1">
                    <mxGeometry relative="1" as="geometry">
                        <Array as="points">
                            <mxPoint x="179" y="2014"/>
                            <mxPoint x="179" y="1102"/>
                        </Array>
                    </mxGeometry>
                </mxCell>
                <mxCell id="129" value="Pass" style="rounded=1;whiteSpace=wrap;html=1;fontColor=#ffffff;strokeColor=#005700;fillColor=#008a00;" parent="1" vertex="1">
                    <mxGeometry x="264" y="2014" width="50" height="20" as="geometry"/>
                </mxCell>
                <mxCell id="133" style="edgeStyle=none;html=1;entryX=1;entryY=0.5;entryDx=0;entryDy=0;strokeWidth=2;dashed=1;" parent="1" edge="1">
                    <mxGeometry relative="1" as="geometry">
                        <Array as="points">
                            <mxPoint x="409" y="1834"/>
                        </Array>
                        <mxPoint x="409.90909090909054" y="1934" as="sourcePoint"/>
                        <mxPoint x="349" y="1834" as="targetPoint"/>
                    </mxGeometry>
                </mxCell>
                <mxCell id="137" style="edgeStyle=none;html=1;entryX=0.5;entryY=0;entryDx=0;entryDy=0;fontSize=17;fontColor=#00CC00;strokeWidth=2;" parent="1" source="136" target="73" edge="1">
                    <mxGeometry relative="1" as="geometry"/>
                </mxCell>
                <mxCell id="136" value="Retrieve Data" style="shape=cylinder3;whiteSpace=wrap;html=1;boundedLbl=1;backgroundOutline=1;size=15;labelBorderColor=none;fontSize=12;fontColor=#ffffff;fillColor=#76608a;strokeColor=#432D57;" parent="1" vertex="1">
                    <mxGeometry x="879" y="1031" width="60" height="80" as="geometry"/>
                </mxCell>
                <mxCell id="138" style="edgeStyle=none;html=1;exitX=0.5;exitY=1;exitDx=0;exitDy=0;fontSize=11;fontColor=#FFFF00;entryX=0.5;entryY=0;entryDx=0;entryDy=0;strokeWidth=2;" parent="1" source="139" target="142" edge="1">
                    <mxGeometry relative="1" as="geometry">
                        <Array as="points"/>
                    </mxGeometry>
                </mxCell>
                <mxCell id="139" value="User Enters&lt;br&gt;Key" style="shape=parallelogram;perimeter=parallelogramPerimeter;whiteSpace=wrap;html=1;fixedSize=1;fillColor=#f8cecc;strokeColor=#b85450;fontColor=#000000;fontStyle=1" parent="1" vertex="1">
                    <mxGeometry x="839" y="1371" width="140" height="40" as="geometry"/>
                </mxCell>
                <mxCell id="140" style="edgeStyle=none;html=1;entryX=0;entryY=0.5;entryDx=0;entryDy=0;fontSize=17;fontColor=#00CC00;strokeWidth=2;dashed=1;" parent="1" source="142" edge="1">
                    <mxGeometry relative="1" as="geometry">
                        <mxPoint x="1005" y="1501" as="targetPoint"/>
                    </mxGeometry>
                </mxCell>
                <mxCell id="141" style="edgeStyle=none;html=1;entryX=0.5;entryY=0;entryDx=0;entryDy=0;fontSize=17;fontColor=#00CC00;strokeWidth=2;" parent="1" source="142" target="143" edge="1">
                    <mxGeometry relative="1" as="geometry"/>
                </mxCell>
                <mxCell id="142" value="Validate" style="rounded=0;whiteSpace=wrap;html=1;fontColor=#ffffff;fillColor=#d80073;strokeColor=#A50040;" parent="1" vertex="1">
                    <mxGeometry x="849" y="1481" width="120" height="40" as="geometry"/>
                </mxCell>
                <mxCell id="143" value="Pass" style="rounded=1;whiteSpace=wrap;html=1;fontColor=#ffffff;strokeColor=#005700;fillColor=#008a00;" parent="1" vertex="1">
                    <mxGeometry x="884" y="1571" width="50" height="20" as="geometry"/>
                </mxCell>
                <mxCell id="144" style="edgeStyle=none;html=1;entryX=1;entryY=0.5;entryDx=0;entryDy=0;strokeWidth=2;dashed=1;" parent="1" edge="1">
                    <mxGeometry relative="1" as="geometry">
                        <Array as="points">
                            <mxPoint x="1029" y="1391"/>
                        </Array>
                        <mxPoint x="1029.9090909090905" y="1491" as="sourcePoint"/>
                        <mxPoint x="969" y="1391" as="targetPoint"/>
                    </mxGeometry>
                </mxCell>
                <mxCell id="146" value="Fail" style="rounded=1;whiteSpace=wrap;html=1;fontColor=#ffffff;strokeColor=#6F0000;fillColor=#a20025;" parent="1" vertex="1">
                    <mxGeometry x="1006" y="1491" width="50" height="20" as="geometry"/>
                </mxCell>
                <mxCell id="160" style="edgeStyle=none;jumpStyle=arc;html=1;fontSize=17;fontColor=#00CC00;strokeWidth=2;entryX=0.5;entryY=0;entryDx=0;entryDy=0;" parent="1" source="151" target="74" edge="1">
                    <mxGeometry relative="1" as="geometry">
                        <mxPoint x="1202" y="1175.5384615384614" as="targetPoint"/>
                    </mxGeometry>
                </mxCell>
                <mxCell id="151" value="Retrieve Data" style="shape=cylinder3;whiteSpace=wrap;html=1;boundedLbl=1;backgroundOutline=1;size=15;labelBorderColor=none;fontSize=12;fontColor=#ffffff;fillColor=#76608a;strokeColor=#432D57;" parent="1" vertex="1">
                    <mxGeometry x="1172" y="1031" width="60" height="80" as="geometry"/>
                </mxCell>
                <mxCell id="152" style="edgeStyle=none;html=1;exitX=0.5;exitY=1;exitDx=0;exitDy=0;fontSize=11;fontColor=#FFFF00;entryX=0.5;entryY=0;entryDx=0;entryDy=0;strokeWidth=2;" parent="1" source="153" target="156" edge="1">
                    <mxGeometry relative="1" as="geometry">
                        <Array as="points"/>
                    </mxGeometry>
                </mxCell>
                <mxCell id="153" value="User Enters&lt;br&gt;Key" style="shape=parallelogram;perimeter=parallelogramPerimeter;whiteSpace=wrap;html=1;fixedSize=1;fillColor=#f8cecc;strokeColor=#b85450;fontColor=#000000;fontStyle=1" parent="1" vertex="1">
                    <mxGeometry x="1133" y="1371" width="140" height="40" as="geometry"/>
                </mxCell>
                <mxCell id="154" style="edgeStyle=none;html=1;entryX=0;entryY=0.5;entryDx=0;entryDy=0;fontSize=17;fontColor=#00CC00;strokeWidth=2;dashed=1;" parent="1" source="156" edge="1">
                    <mxGeometry relative="1" as="geometry">
                        <mxPoint x="1299.0000000000005" y="1501" as="targetPoint"/>
                    </mxGeometry>
                </mxCell>
                <mxCell id="155" style="edgeStyle=none;html=1;entryX=0.5;entryY=0;entryDx=0;entryDy=0;fontSize=17;fontColor=#00CC00;strokeWidth=2;" parent="1" source="156" target="157" edge="1">
                    <mxGeometry relative="1" as="geometry"/>
                </mxCell>
                <mxCell id="156" value="Validate" style="rounded=0;whiteSpace=wrap;html=1;fontColor=#ffffff;fillColor=#d80073;strokeColor=#A50040;" parent="1" vertex="1">
                    <mxGeometry x="1143" y="1481" width="120" height="40" as="geometry"/>
                </mxCell>
                <mxCell id="157" value="Pass" style="rounded=1;whiteSpace=wrap;html=1;fontColor=#ffffff;strokeColor=#005700;fillColor=#008a00;" parent="1" vertex="1">
                    <mxGeometry x="1178" y="1571" width="50" height="20" as="geometry"/>
                </mxCell>
                <mxCell id="158" style="edgeStyle=none;html=1;entryX=1;entryY=0.5;entryDx=0;entryDy=0;strokeWidth=2;dashed=1;" parent="1" edge="1">
                    <mxGeometry relative="1" as="geometry">
                        <Array as="points">
                            <mxPoint x="1323" y="1391"/>
                        </Array>
                        <mxPoint x="1323.90909090909" y="1491" as="sourcePoint"/>
                        <mxPoint x="1263" y="1391" as="targetPoint"/>
                    </mxGeometry>
                </mxCell>
                <mxCell id="159" value="Fail" style="rounded=1;whiteSpace=wrap;html=1;fontColor=#ffffff;strokeColor=#6F0000;fillColor=#a20025;" parent="1" vertex="1">
                    <mxGeometry x="1300" y="1491" width="50" height="20" as="geometry"/>
                </mxCell>
                <mxCell id="382" style="edgeStyle=none;jumpStyle=arc;html=1;entryX=0;entryY=0.75;entryDx=0;entryDy=0;fontColor=#000000;strokeWidth=2;fillColor=#ffcd28;gradientColor=#ffa500;strokeColor=#d79b00;" parent="1" source="167" target="47" edge="1">
                    <mxGeometry relative="1" as="geometry">
                        <Array as="points">
                            <mxPoint x="-223" y="1428"/>
                            <mxPoint x="-174" y="1428"/>
                            <mxPoint x="-174" y="804"/>
                            <mxPoint x="-174" y="702"/>
                            <mxPoint x="24" y="702"/>
                        </Array>
                    </mxGeometry>
                </mxCell>
                <mxCell id="167" value="Connector to F1 Hub Menu" style="ellipse;whiteSpace=wrap;html=1;aspect=fixed;fontSize=15;fontColor=#000000;fillColor=#e3c800;strokeColor=#B09500;" parent="1" vertex="1">
                    <mxGeometry x="-273" y="1562" width="100" height="100" as="geometry"/>
                </mxCell>
                <mxCell id="381" style="edgeStyle=none;jumpStyle=arc;html=1;entryX=0;entryY=0.75;entryDx=0;entryDy=0;fontColor=#000000;strokeWidth=2;fillColor=#ffcd28;gradientColor=#ffa500;strokeColor=#d79b00;" parent="1" source="168" target="20" edge="1">
                    <mxGeometry relative="1" as="geometry">
                        <Array as="points">
                            <mxPoint x="-365" y="1418"/>
                            <mxPoint x="-490" y="1418"/>
                            <mxPoint x="-490" y="1054"/>
                            <mxPoint x="-572" y="1054"/>
                            <mxPoint x="-572" y="734"/>
                            <mxPoint x="-572" y="414"/>
                        </Array>
                    </mxGeometry>
                </mxCell>
                <mxCell id="168" value="Connector to Main Menu" style="ellipse;whiteSpace=wrap;html=1;aspect=fixed;fontSize=15;fontColor=#000000;fillColor=#e3c800;strokeColor=#B09500;" parent="1" vertex="1">
                    <mxGeometry x="-415" y="1562" width="100" height="100" as="geometry"/>
                </mxCell>
                <mxCell id="170" value="Exit" style="edgeLabel;html=1;align=center;verticalAlign=middle;resizable=0;points=[];fontSize=17;fontColor=#00CC00;" parent="1" vertex="1" connectable="0">
                    <mxGeometry x="413" y="1481.0036842105262" as="geometry"/>
                </mxCell>
                <mxCell id="172" value="View List" style="edgeLabel;html=1;align=center;verticalAlign=middle;resizable=0;points=[];fontSize=17;fontColor=#00CC00;" parent="1" vertex="1" connectable="0">
                    <mxGeometry x="438" y="1381.0036842105262" as="geometry"/>
                </mxCell>
                <mxCell id="175" style="edgeStyle=none;jumpStyle=arc;html=1;entryX=0.5;entryY=0;entryDx=0;entryDy=0;fontSize=15;fontColor=#00CC00;strokeWidth=2;" parent="1" source="173" target="174" edge="1">
                    <mxGeometry relative="1" as="geometry"/>
                </mxCell>
                <mxCell id="173" value="Retrieve Data" style="shape=cylinder3;whiteSpace=wrap;html=1;boundedLbl=1;backgroundOutline=1;size=15;labelBorderColor=none;fontSize=12;fontColor=#ffffff;fillColor=#76608a;strokeColor=#432D57;" parent="1" vertex="1">
                    <mxGeometry x="572" y="1341" width="60" height="80" as="geometry"/>
                </mxCell>
                <mxCell id="185" style="edgeStyle=none;jumpStyle=arc;html=1;fontSize=15;fontColor=#00CC00;strokeWidth=2;entryX=0.5;entryY=0;entryDx=0;entryDy=0;" parent="1" target="177" edge="1">
                    <mxGeometry relative="1" as="geometry">
                        <mxPoint x="599" y="1562" as="sourcePoint"/>
                        <mxPoint x="599" y="1612" as="targetPoint"/>
                    </mxGeometry>
                </mxCell>
                <mxCell id="174" value="Display List Of Commands" style="shape=hexagon;perimeter=hexagonPerimeter2;whiteSpace=wrap;html=1;fixedSize=1;labelBorderColor=none;fontSize=12;fillColor=#1ba1e2;strokeColor=#006EAF;fontColor=#ffffff;" parent="1" vertex="1">
                    <mxGeometry x="542" y="1481" width="120" height="80" as="geometry"/>
                </mxCell>
                <mxCell id="176" style="edgeStyle=none;html=1;exitX=0.5;exitY=1;exitDx=0;exitDy=0;fontSize=11;fontColor=#FFFF00;entryX=0.5;entryY=0;entryDx=0;entryDy=0;strokeWidth=2;" parent="1" source="177" target="180" edge="1">
                    <mxGeometry relative="1" as="geometry">
                        <Array as="points"/>
                    </mxGeometry>
                </mxCell>
                <mxCell id="177" value="User Enters&lt;br&gt;Key" style="shape=parallelogram;perimeter=parallelogramPerimeter;whiteSpace=wrap;html=1;fixedSize=1;fillColor=#f8cecc;strokeColor=#b85450;fontColor=#000000;fontStyle=1" parent="1" vertex="1">
                    <mxGeometry x="529" y="1622" width="140" height="40" as="geometry"/>
                </mxCell>
                <mxCell id="178" style="edgeStyle=none;html=1;entryX=0;entryY=0.5;entryDx=0;entryDy=0;fontSize=17;fontColor=#00CC00;strokeWidth=2;dashed=1;" parent="1" source="180" edge="1">
                    <mxGeometry relative="1" as="geometry">
                        <mxPoint x="695" y="1752" as="targetPoint"/>
                    </mxGeometry>
                </mxCell>
                <mxCell id="179" style="edgeStyle=none;html=1;entryX=0.5;entryY=0;entryDx=0;entryDy=0;fontSize=17;fontColor=#00CC00;strokeWidth=2;" parent="1" source="180" target="181" edge="1">
                    <mxGeometry relative="1" as="geometry"/>
                </mxCell>
                <mxCell id="180" value="Validate" style="rounded=0;whiteSpace=wrap;html=1;fontColor=#ffffff;fillColor=#d80073;strokeColor=#A50040;" parent="1" vertex="1">
                    <mxGeometry x="539" y="1732" width="120" height="40" as="geometry"/>
                </mxCell>
                <mxCell id="186" style="edgeStyle=none;jumpStyle=arc;html=1;entryX=1;entryY=0.25;entryDx=0;entryDy=0;fontSize=15;fontColor=#00CC00;strokeWidth=2;" parent="1" source="181" target="72" edge="1">
                    <mxGeometry relative="1" as="geometry">
                        <Array as="points">
                            <mxPoint x="599" y="1902"/>
                            <mxPoint x="769" y="1902"/>
                            <mxPoint x="769" y="1392"/>
                            <mxPoint x="679" y="1392"/>
                            <mxPoint x="679" y="1332"/>
                            <mxPoint x="499" y="1332"/>
                            <mxPoint x="499" y="1085"/>
                        </Array>
                    </mxGeometry>
                </mxCell>
                <mxCell id="181" value="Pass" style="rounded=1;whiteSpace=wrap;html=1;fontColor=#ffffff;strokeColor=#005700;fillColor=#008a00;" parent="1" vertex="1">
                    <mxGeometry x="574" y="1822" width="50" height="20" as="geometry"/>
                </mxCell>
                <mxCell id="182" style="edgeStyle=none;html=1;entryX=1;entryY=0.5;entryDx=0;entryDy=0;strokeWidth=2;dashed=1;" parent="1" edge="1">
                    <mxGeometry relative="1" as="geometry">
                        <Array as="points">
                            <mxPoint x="719" y="1642"/>
                        </Array>
                        <mxPoint x="719.9090909090905" y="1742" as="sourcePoint"/>
                        <mxPoint x="659" y="1642" as="targetPoint"/>
                    </mxGeometry>
                </mxCell>
                <mxCell id="183" value="Fail" style="rounded=1;whiteSpace=wrap;html=1;fontColor=#ffffff;strokeColor=#6F0000;fillColor=#a20025;" parent="1" vertex="1">
                    <mxGeometry x="696" y="1742" width="50" height="20" as="geometry"/>
                </mxCell>
                <mxCell id="184" value="A" style="edgeLabel;html=1;align=center;verticalAlign=middle;resizable=0;points=[];fontStyle=1;fontSize=17;fontColor=#00CC00;" parent="1" vertex="1" connectable="0">
                    <mxGeometry x="289.997142857143" y="1682" as="geometry">
                        <mxPoint x="307" y="187" as="offset"/>
                    </mxGeometry>
                </mxCell>
                <mxCell id="207" value="Display difficulty select screen" style="shape=hexagon;perimeter=hexagonPerimeter2;whiteSpace=wrap;html=1;fixedSize=1;labelBorderColor=none;fontSize=12;fillColor=#1ba1e2;strokeColor=#006EAF;fontColor=#ffffff;" parent="1" vertex="1">
                    <mxGeometry x="-1483" y="906" width="120" height="80" as="geometry"/>
                </mxCell>
                <mxCell id="209" value="User Enters&lt;br&gt;Key" style="shape=parallelogram;perimeter=parallelogramPerimeter;whiteSpace=wrap;html=1;fixedSize=1;fillColor=#f8cecc;strokeColor=#b85450;fontColor=#000000;fontStyle=1" parent="1" vertex="1">
                    <mxGeometry x="-1493" y="1046" width="140" height="40" as="geometry"/>
                </mxCell>
                <mxCell id="210" value="Validate" style="rounded=0;whiteSpace=wrap;html=1;fontColor=#ffffff;fillColor=#d80073;strokeColor=#A50040;" parent="1" vertex="1">
                    <mxGeometry x="-1483" y="1136" width="120" height="40" as="geometry"/>
                </mxCell>
                <mxCell id="211" value="Fail" style="rounded=1;whiteSpace=wrap;html=1;fontColor=#ffffff;strokeColor=#6F0000;fillColor=#a20025;" parent="1" vertex="1">
                    <mxGeometry x="-1323" y="1056" width="50" height="20" as="geometry"/>
                </mxCell>
                <mxCell id="212" value="Pass" style="rounded=1;whiteSpace=wrap;html=1;fontColor=#ffffff;strokeColor=#005700;fillColor=#008a00;" parent="1" vertex="1">
                    <mxGeometry x="-1449" y="1226" width="50" height="20" as="geometry"/>
                </mxCell>
                <mxCell id="213" value="" style="edgeStyle=none;html=1;exitX=1;exitY=0.5;exitDx=0;exitDy=0;fontSize=17;fontColor=#00CC00;endArrow=none;dashed=1;strokeWidth=2;entryX=0.6;entryY=1;entryDx=0;entryDy=0;entryPerimeter=0;" parent="1" target="211" edge="1">
                    <mxGeometry relative="1" as="geometry">
                        <mxPoint x="-1293" y="1086" as="targetPoint"/>
                        <mxPoint x="-1363" y="1156" as="sourcePoint"/>
                        <Array as="points">
                            <mxPoint x="-1353" y="1156"/>
                            <mxPoint x="-1293" y="1156"/>
                        </Array>
                    </mxGeometry>
                </mxCell>
                <mxCell id="214" style="edgeStyle=none;html=1;fontSize=17;fontColor=#00CC00;startArrow=none;dashed=1;strokeWidth=2;" parent="1" edge="1">
                    <mxGeometry relative="1" as="geometry">
                        <mxPoint x="-1363" y="1066" as="targetPoint"/>
                        <Array as="points"/>
                        <mxPoint x="-1323" y="1066" as="sourcePoint"/>
                    </mxGeometry>
                </mxCell>
                <mxCell id="215" style="edgeStyle=none;html=1;exitX=0.5;exitY=1;exitDx=0;exitDy=0;fontSize=17;fontColor=#00CC00;startArrow=none;strokeWidth=2;entryX=0.5;entryY=0;entryDx=0;entryDy=0;entryPerimeter=0;" parent="1" target="209" edge="1">
                    <mxGeometry relative="1" as="geometry">
                        <mxPoint x="-1423" y="986" as="sourcePoint"/>
                        <mxPoint x="-1423" y="1036" as="targetPoint"/>
                    </mxGeometry>
                </mxCell>
                <mxCell id="216" style="edgeStyle=none;html=1;exitX=0.5;exitY=1;exitDx=0;exitDy=0;fontSize=17;fontColor=#00CC00;startArrow=none;strokeWidth=2;" parent="1" edge="1">
                    <mxGeometry relative="1" as="geometry">
                        <mxPoint x="-1423" y="1086" as="sourcePoint"/>
                        <mxPoint x="-1423" y="1136" as="targetPoint"/>
                    </mxGeometry>
                </mxCell>
                <mxCell id="217" style="edgeStyle=none;html=1;exitX=0.5;exitY=1;exitDx=0;exitDy=0;fontSize=17;fontColor=#00CC00;startArrow=none;strokeWidth=2;" parent="1" edge="1">
                    <mxGeometry relative="1" as="geometry">
                        <mxPoint x="-1423" y="1176" as="sourcePoint"/>
                        <mxPoint x="-1423" y="1226" as="targetPoint"/>
                    </mxGeometry>
                </mxCell>
                <mxCell id="218" value="Display question screen" style="shape=hexagon;perimeter=hexagonPerimeter2;whiteSpace=wrap;html=1;fixedSize=1;labelBorderColor=none;fontSize=12;fillColor=#1ba1e2;strokeColor=#006EAF;fontColor=#ffffff;" parent="1" vertex="1">
                    <mxGeometry x="-1483" y="1326" width="120" height="80" as="geometry"/>
                </mxCell>
                <mxCell id="219" style="edgeStyle=none;html=1;exitX=0.5;exitY=1;exitDx=0;exitDy=0;fontSize=17;fontColor=#00CC00;startArrow=none;strokeWidth=2;entryX=0.5;entryY=0;entryDx=0;entryDy=0;entryPerimeter=0;" parent="1" target="218" edge="1">
                    <mxGeometry relative="1" as="geometry">
                        <mxPoint x="-1423" y="1246" as="sourcePoint"/>
                        <mxPoint x="-1423" y="1296" as="targetPoint"/>
                    </mxGeometry>
                </mxCell>
                <mxCell id="220" value="Question Info" style="swimlane;fillColor=#e3c800;fontColor=#000000;strokeColor=#B09500;" parent="1" vertex="1">
                    <mxGeometry x="-1763" y="1253" width="200" height="190" as="geometry"/>
                </mxCell>
                <mxCell id="221" value="10 questions will load randomly&#10;one by one according to what &#10;difficulty level the user has &#10;selected&#10;&#10;If the player answers correctly,&#10;they will gain points relative&#10;to the difficulty of question &#10;answered" style="text;strokeColor=none;fillColor=none;align=left;verticalAlign=middle;spacingLeft=4;spacingRight=4;overflow=hidden;points=[[0,0.5],[1,0.5]];portConstraint=eastwest;rotatable=0;" parent="220" vertex="1">
                    <mxGeometry x="10" y="20" width="180" height="170" as="geometry"/>
                </mxCell>
                <mxCell id="222" value="User Enters&lt;br&gt;Key" style="shape=parallelogram;perimeter=parallelogramPerimeter;whiteSpace=wrap;html=1;fixedSize=1;fillColor=#f8cecc;strokeColor=#b85450;fontColor=#000000;fontStyle=1" parent="1" vertex="1">
                    <mxGeometry x="-1493" y="1456" width="140" height="40" as="geometry"/>
                </mxCell>
                <mxCell id="223" value="Validate" style="rounded=0;whiteSpace=wrap;html=1;fontColor=#ffffff;fillColor=#d80073;strokeColor=#A50040;" parent="1" vertex="1">
                    <mxGeometry x="-1483" y="1546" width="120" height="40" as="geometry"/>
                </mxCell>
                <mxCell id="224" value="Fail" style="rounded=1;whiteSpace=wrap;html=1;fontColor=#ffffff;strokeColor=#6F0000;fillColor=#a20025;" parent="1" vertex="1">
                    <mxGeometry x="-1323" y="1466" width="50" height="20" as="geometry"/>
                </mxCell>
                <mxCell id="225" value="Pass" style="rounded=1;whiteSpace=wrap;html=1;fontColor=#ffffff;strokeColor=#005700;fillColor=#008a00;" parent="1" vertex="1">
                    <mxGeometry x="-1449" y="1636" width="50" height="20" as="geometry"/>
                </mxCell>
                <mxCell id="226" value="" style="edgeStyle=none;html=1;exitX=1;exitY=0.5;exitDx=0;exitDy=0;fontSize=17;fontColor=#00CC00;endArrow=none;dashed=1;strokeWidth=2;entryX=0.6;entryY=1;entryDx=0;entryDy=0;entryPerimeter=0;" parent="1" target="224" edge="1">
                    <mxGeometry relative="1" as="geometry">
                        <mxPoint x="-1293" y="1496" as="targetPoint"/>
                        <mxPoint x="-1363" y="1566" as="sourcePoint"/>
                        <Array as="points">
                            <mxPoint x="-1353" y="1566"/>
                            <mxPoint x="-1293" y="1566"/>
                        </Array>
                    </mxGeometry>
                </mxCell>
                <mxCell id="227" style="edgeStyle=none;html=1;fontSize=17;fontColor=#00CC00;startArrow=none;dashed=1;strokeWidth=2;" parent="1" edge="1">
                    <mxGeometry relative="1" as="geometry">
                        <mxPoint x="-1363" y="1476" as="targetPoint"/>
                        <Array as="points"/>
                        <mxPoint x="-1323" y="1476" as="sourcePoint"/>
                    </mxGeometry>
                </mxCell>
                <mxCell id="228" style="edgeStyle=none;html=1;exitX=0.5;exitY=1;exitDx=0;exitDy=0;fontSize=17;fontColor=#00CC00;startArrow=none;strokeWidth=2;" parent="1" edge="1">
                    <mxGeometry relative="1" as="geometry">
                        <mxPoint x="-1423" y="1496" as="sourcePoint"/>
                        <mxPoint x="-1423" y="1546" as="targetPoint"/>
                    </mxGeometry>
                </mxCell>
                <mxCell id="229" style="edgeStyle=none;html=1;exitX=0.5;exitY=1;exitDx=0;exitDy=0;fontSize=17;fontColor=#00CC00;startArrow=none;strokeWidth=2;" parent="1" edge="1">
                    <mxGeometry relative="1" as="geometry">
                        <mxPoint x="-1423" y="1586" as="sourcePoint"/>
                        <mxPoint x="-1423" y="1636" as="targetPoint"/>
                    </mxGeometry>
                </mxCell>
                <mxCell id="230" style="edgeStyle=none;html=1;fontSize=17;fontColor=#00CC00;startArrow=none;strokeWidth=2;entryX=0.5;entryY=0;entryDx=0;entryDy=0;entryPerimeter=0;" parent="1" edge="1">
                    <mxGeometry relative="1" as="geometry">
                        <mxPoint x="-1423" y="1406" as="sourcePoint"/>
                        <mxPoint x="-1423" y="1456" as="targetPoint"/>
                    </mxGeometry>
                </mxCell>
                <mxCell id="231" value="Validation Info" style="swimlane;fillColor=#e3c800;fontColor=#000000;strokeColor=#B09500;" parent="1" vertex="1">
                    <mxGeometry x="-1763" y="1486" width="200" height="120" as="geometry"/>
                </mxCell>
                <mxCell id="232" value="Validation will check if the user&#10;has entered the correct key and&#10;if so it will then check if the &#10;answer is correct." style="text;strokeColor=none;fillColor=none;align=left;verticalAlign=middle;spacingLeft=4;spacingRight=4;overflow=hidden;points=[[0,0.5],[1,0.5]];portConstraint=eastwest;rotatable=0;" parent="231" vertex="1">
                    <mxGeometry x="10" y="30" width="180" height="80" as="geometry"/>
                </mxCell>
                <mxCell id="233" value="" style="endArrow=none;html=1;strokeWidth=2;fillColor=#e3c800;strokeColor=#B09500;" parent="1" edge="1">
                    <mxGeometry width="50" height="50" relative="1" as="geometry">
                        <mxPoint x="-1563" y="1566" as="sourcePoint"/>
                        <mxPoint x="-1483" y="1566" as="targetPoint"/>
                    </mxGeometry>
                </mxCell>
                <mxCell id="234" value="" style="endArrow=none;html=1;strokeWidth=2;fillColor=#e3c800;strokeColor=#B09500;" parent="1" edge="1">
                    <mxGeometry width="50" height="50" relative="1" as="geometry">
                        <mxPoint x="-1564" y="1365" as="sourcePoint"/>
                        <mxPoint x="-1483" y="1365.47" as="targetPoint"/>
                    </mxGeometry>
                </mxCell>
                <mxCell id="235" style="edgeStyle=none;html=1;exitX=0.5;exitY=1;exitDx=0;exitDy=0;fontSize=17;fontColor=#00CC00;startArrow=none;strokeWidth=2;" parent="1" edge="1">
                    <mxGeometry relative="1" as="geometry">
                        <mxPoint x="-1423" y="1656" as="sourcePoint"/>
                        <mxPoint x="-1423" y="1706" as="targetPoint"/>
                    </mxGeometry>
                </mxCell>
                <mxCell id="236" value="Validate" style="rounded=0;whiteSpace=wrap;html=1;fontColor=#ffffff;fillColor=#d80073;strokeColor=#A50040;" parent="1" vertex="1">
                    <mxGeometry x="-1483" y="1706" width="120" height="40" as="geometry"/>
                </mxCell>
                <mxCell id="237" value="Validation Info" style="swimlane;fillColor=#e3c800;fontColor=#000000;strokeColor=#B09500;" parent="1" vertex="1">
                    <mxGeometry x="-1763" y="1666" width="200" height="130" as="geometry"/>
                </mxCell>
                <mxCell id="238" value="&lt;font face=&quot;helvetica&quot;&gt;Validation will check if the user&lt;br&gt;has answered 10 questions. If&lt;br&gt;not, load a new question, otherwise, add score to&amp;nbsp;&lt;br&gt;leaderboards&lt;br&gt;&lt;/font&gt;" style="text;whiteSpace=wrap;html=1;" parent="237" vertex="1">
                    <mxGeometry x="10" y="40" width="180" height="60" as="geometry"/>
                </mxCell>
                <mxCell id="239" value="" style="endArrow=none;html=1;strokeWidth=2;fillColor=#e3c800;strokeColor=#B09500;" parent="1" edge="1">
                    <mxGeometry width="50" height="50" relative="1" as="geometry">
                        <mxPoint x="-1563" y="1726" as="sourcePoint"/>
                        <mxPoint x="-1483" y="1726" as="targetPoint"/>
                    </mxGeometry>
                </mxCell>
                <mxCell id="240" value="Pass" style="rounded=1;whiteSpace=wrap;html=1;fontColor=#ffffff;strokeColor=#005700;fillColor=#008a00;" parent="1" vertex="1">
                    <mxGeometry x="-1449" y="1796" width="50" height="20" as="geometry"/>
                </mxCell>
                <mxCell id="241" style="edgeStyle=none;html=1;exitX=0.5;exitY=1;exitDx=0;exitDy=0;fontSize=17;fontColor=#00CC00;startArrow=none;strokeWidth=2;" parent="1" edge="1">
                    <mxGeometry relative="1" as="geometry">
                        <mxPoint x="-1423" y="1746" as="sourcePoint"/>
                        <mxPoint x="-1423" y="1796" as="targetPoint"/>
                        <Array as="points">
                            <mxPoint x="-1423" y="1796"/>
                        </Array>
                    </mxGeometry>
                </mxCell>
                <mxCell id="242" value="Fail" style="rounded=1;whiteSpace=wrap;html=1;fontColor=#ffffff;strokeColor=#6F0000;fillColor=#a20025;" parent="1" vertex="1">
                    <mxGeometry x="-1273" y="1716" width="50" height="20" as="geometry"/>
                </mxCell>
                <mxCell id="243" value="" style="edgeStyle=none;html=1;exitX=1;exitY=0.5;exitDx=0;exitDy=0;fontSize=17;fontColor=#00CC00;endArrow=none;dashed=1;strokeWidth=2;" parent="1" edge="1">
                    <mxGeometry relative="1" as="geometry">
                        <mxPoint x="-1276" y="1726" as="targetPoint"/>
                        <mxPoint x="-1363" y="1726" as="sourcePoint"/>
                        <Array as="points">
                            <mxPoint x="-1353" y="1726"/>
                            <mxPoint x="-1343" y="1726"/>
                        </Array>
                    </mxGeometry>
                </mxCell>
                <mxCell id="244" style="edgeStyle=none;html=1;fontSize=17;fontColor=#00CC00;startArrow=none;dashed=1;strokeWidth=2;exitX=0.502;exitY=-0.052;exitDx=0;exitDy=0;exitPerimeter=0;entryX=1;entryY=0.75;entryDx=0;entryDy=0;" parent="1" source="242" target="218" edge="1">
                    <mxGeometry relative="1" as="geometry">
                        <mxPoint x="-1268" y="1436" as="targetPoint"/>
                        <Array as="points">
                            <mxPoint x="-1248" y="1566"/>
                            <mxPoint x="-1248" y="1446"/>
                        </Array>
                        <mxPoint x="-1263" y="1676" as="sourcePoint"/>
                    </mxGeometry>
                </mxCell>
                <mxCell id="245" value="Difficulty Info" style="swimlane;fillColor=#e3c800;fontColor=#000000;strokeColor=#B09500;" parent="1" vertex="1">
                    <mxGeometry x="-1763" y="887" width="200" height="110" as="geometry"/>
                </mxCell>
                <mxCell id="246" value="A) Load easy questions&#10;B) Load medium questions&#10;C) Load hard questions&#10;D) Return to Quiz Hub" style="text;strokeColor=none;fillColor=none;align=left;verticalAlign=middle;spacingLeft=4;spacingRight=4;overflow=hidden;points=[[0,0.5],[1,0.5]];portConstraint=eastwest;rotatable=0;" parent="245" vertex="1">
                    <mxGeometry x="10" y="30" width="180" height="70" as="geometry"/>
                </mxCell>
                <mxCell id="247" value="" style="endArrow=none;html=1;strokeWidth=2;fillColor=#e3c800;strokeColor=#B09500;" parent="1" edge="1">
                    <mxGeometry width="50" height="50" relative="1" as="geometry">
                        <mxPoint x="-1553" y="946" as="sourcePoint"/>
                        <mxPoint x="-1483" y="946" as="targetPoint"/>
                    </mxGeometry>
                </mxCell>
                <mxCell id="248" value="Upload Data" style="shape=cylinder3;whiteSpace=wrap;html=1;boundedLbl=1;backgroundOutline=1;size=15;labelBorderColor=none;fontSize=12;fontColor=#ffffff;fillColor=#76608a;strokeColor=#432D57;" parent="1" vertex="1">
                    <mxGeometry x="-1453" y="1906" width="60" height="80" as="geometry"/>
                </mxCell>
                <mxCell id="249" style="edgeStyle=none;html=1;exitX=0.5;exitY=1;exitDx=0;exitDy=0;fontSize=17;fontColor=#00CC00;startArrow=none;strokeWidth=2;" parent="1" edge="1">
                    <mxGeometry relative="1" as="geometry">
                        <mxPoint x="-1423" y="1816" as="sourcePoint"/>
                        <mxPoint x="-1423" y="1906" as="targetPoint"/>
                        <Array as="points">
                            <mxPoint x="-1423" y="1866"/>
                            <mxPoint x="-1423" y="1906"/>
                            <mxPoint x="-1423" y="1896"/>
                        </Array>
                    </mxGeometry>
                </mxCell>
                <mxCell id="250" value="User Enters&lt;br&gt;Key" style="shape=parallelogram;perimeter=parallelogramPerimeter;whiteSpace=wrap;html=1;fixedSize=1;fillColor=#f8cecc;strokeColor=#b85450;fontColor=#000000;fontStyle=1" parent="1" vertex="1">
                    <mxGeometry x="-1173" y="1816" width="140" height="40" as="geometry"/>
                </mxCell>
                <mxCell id="251" value="Validate" style="rounded=0;whiteSpace=wrap;html=1;fontColor=#ffffff;fillColor=#d80073;strokeColor=#A50040;" parent="1" vertex="1">
                    <mxGeometry x="-1163" y="1906" width="120" height="40" as="geometry"/>
                </mxCell>
                <mxCell id="252" value="Fail" style="rounded=1;whiteSpace=wrap;html=1;fontColor=#ffffff;strokeColor=#6F0000;fillColor=#a20025;" parent="1" vertex="1">
                    <mxGeometry x="-1003" y="1826" width="50" height="20" as="geometry"/>
                </mxCell>
                <mxCell id="378" style="edgeStyle=none;jumpStyle=arc;html=1;exitX=0;exitY=1;exitDx=0;exitDy=0;fontColor=#000000;strokeWidth=2;entryX=0.61;entryY=1.013;entryDx=0;entryDy=0;entryPerimeter=0;" parent="1" edge="1">
                    <mxGeometry relative="1" as="geometry">
                        <mxPoint x="-501" y="1664.2999999999997" as="targetPoint"/>
                        <mxPoint x="-1129" y="2015" as="sourcePoint"/>
                        <Array as="points">
                            <mxPoint x="-1129" y="2070"/>
                            <mxPoint x="-924" y="2070"/>
                            <mxPoint x="-924" y="1966"/>
                            <mxPoint x="-924" y="1798"/>
                            <mxPoint x="-501" y="1798"/>
                        </Array>
                    </mxGeometry>
                </mxCell>
                <mxCell id="379" style="edgeStyle=none;jumpStyle=arc;html=1;exitX=1;exitY=1;exitDx=0;exitDy=0;fontColor=#000000;strokeWidth=2;" parent="1" edge="1">
                    <mxGeometry relative="1" as="geometry">
                        <mxPoint x="-350.1379310344828" y="1661.7586206896553" as="targetPoint"/>
                        <mxPoint x="-1083" y="2011" as="sourcePoint"/>
                        <Array as="points">
                            <mxPoint x="-1083" y="2045"/>
                            <mxPoint x="-893" y="2045"/>
                            <mxPoint x="-893" y="1823"/>
                            <mxPoint x="-350" y="1823"/>
                        </Array>
                    </mxGeometry>
                </mxCell>
                <mxCell id="253" value="Pass" style="rounded=1;whiteSpace=wrap;html=1;fontColor=#ffffff;strokeColor=#005700;fillColor=#008a00;" parent="1" vertex="1">
                    <mxGeometry x="-1129" y="1996" width="50" height="20" as="geometry"/>
                </mxCell>
                <mxCell id="254" value="" style="edgeStyle=none;html=1;exitX=1;exitY=0.5;exitDx=0;exitDy=0;fontSize=17;fontColor=#00CC00;endArrow=none;dashed=1;strokeWidth=2;entryX=0.6;entryY=1;entryDx=0;entryDy=0;entryPerimeter=0;" parent="1" target="252" edge="1">
                    <mxGeometry relative="1" as="geometry">
                        <mxPoint x="-973" y="1856" as="targetPoint"/>
                        <mxPoint x="-1043" y="1926" as="sourcePoint"/>
                        <Array as="points">
                            <mxPoint x="-1033" y="1926"/>
                            <mxPoint x="-973" y="1926"/>
                        </Array>
                    </mxGeometry>
                </mxCell>
                <mxCell id="255" style="edgeStyle=none;html=1;fontSize=17;fontColor=#00CC00;startArrow=none;dashed=1;strokeWidth=2;" parent="1" edge="1">
                    <mxGeometry relative="1" as="geometry">
                        <mxPoint x="-1043" y="1836" as="targetPoint"/>
                        <Array as="points"/>
                        <mxPoint x="-1003" y="1836" as="sourcePoint"/>
                    </mxGeometry>
                </mxCell>
                <mxCell id="256" style="edgeStyle=none;html=1;exitX=0.5;exitY=1;exitDx=0;exitDy=0;fontSize=17;fontColor=#00CC00;startArrow=none;strokeWidth=2;" parent="1" edge="1">
                    <mxGeometry relative="1" as="geometry">
                        <mxPoint x="-1103" y="1856" as="sourcePoint"/>
                        <mxPoint x="-1103" y="1906" as="targetPoint"/>
                    </mxGeometry>
                </mxCell>
                <mxCell id="257" style="edgeStyle=none;html=1;exitX=0.5;exitY=1;exitDx=0;exitDy=0;fontSize=17;fontColor=#00CC00;startArrow=none;strokeWidth=2;" parent="1" edge="1">
                    <mxGeometry relative="1" as="geometry">
                        <mxPoint x="-1103" y="1946" as="sourcePoint"/>
                        <mxPoint x="-1103" y="1996" as="targetPoint"/>
                    </mxGeometry>
                </mxCell>
                <mxCell id="258" style="edgeStyle=none;html=1;exitX=0.5;exitY=1;exitDx=0;exitDy=0;fontSize=17;fontColor=#00CC00;startArrow=none;strokeWidth=2;" parent="1" target="250" edge="1">
                    <mxGeometry relative="1" as="geometry">
                        <mxPoint x="-1423" y="1986" as="sourcePoint"/>
                        <mxPoint x="-1203" y="1816" as="targetPoint"/>
                        <Array as="points">
                            <mxPoint x="-1423" y="2011"/>
                            <mxPoint x="-1253" y="2011"/>
                            <mxPoint x="-1253" y="1986"/>
                            <mxPoint x="-1253" y="1896"/>
                            <mxPoint x="-1253" y="1836"/>
                        </Array>
                    </mxGeometry>
                </mxCell>
                <mxCell id="265" style="edgeStyle=none;jumpStyle=arc;html=1;entryX=0.5;entryY=0;entryDx=0;entryDy=0;entryPerimeter=0;fontSize=15;fontColor=#00CC00;strokeColor=default;strokeWidth=2;" parent="1" source="262" target="264" edge="1">
                    <mxGeometry relative="1" as="geometry"/>
                </mxCell>
                <mxCell id="262" value="User Submits&lt;br&gt;&amp;nbsp;Feedback" style="shape=parallelogram;perimeter=parallelogramPerimeter;whiteSpace=wrap;html=1;fixedSize=1;fillColor=#f8cecc;strokeColor=#b85450;fontColor=#000000;fontStyle=1" parent="1" vertex="1">
                    <mxGeometry x="-373" y="931" width="140" height="40" as="geometry"/>
                </mxCell>
                <mxCell id="267" style="edgeStyle=none;jumpStyle=arc;html=1;fontSize=15;fontColor=#00CC00;strokeColor=default;strokeWidth=2;" parent="1" source="264" target="266" edge="1">
                    <mxGeometry relative="1" as="geometry"/>
                </mxCell>
                <mxCell id="264" value="Upload Data" style="shape=cylinder3;whiteSpace=wrap;html=1;boundedLbl=1;backgroundOutline=1;size=15;labelBorderColor=none;fontSize=12;fontColor=#ffffff;fillColor=#76608a;strokeColor=#432D57;" parent="1" vertex="1">
                    <mxGeometry x="-333" y="1025" width="60" height="80" as="geometry"/>
                </mxCell>
                <mxCell id="266" value="Display Thankyou message" style="shape=hexagon;perimeter=hexagonPerimeter2;whiteSpace=wrap;html=1;fixedSize=1;labelBorderColor=none;fontSize=12;fillColor=#1ba1e2;strokeColor=#006EAF;fontColor=#ffffff;" parent="1" vertex="1">
                    <mxGeometry x="-363" y="1150" width="120" height="80" as="geometry"/>
                </mxCell>
                <mxCell id="269" style="edgeStyle=none;html=1;entryX=0.5;entryY=0;entryDx=0;entryDy=0;fontSize=17;fontColor=#00CC00;startArrow=none;strokeWidth=2;" parent="1" source="309" target="284" edge="1">
                    <mxGeometry relative="1" as="geometry">
                        <mxPoint x="-872" y="1263" as="sourcePoint"/>
                    </mxGeometry>
                </mxCell>
                <mxCell id="275" style="edgeStyle=none;html=1;exitX=0.5;exitY=1;exitDx=0;exitDy=0;fontSize=17;fontColor=#00CC00;strokeWidth=2;" parent="1" target="279" edge="1">
                    <mxGeometry relative="1" as="geometry">
                        <mxPoint x="-672" y="1211" as="sourcePoint"/>
                    </mxGeometry>
                </mxCell>
                <mxCell id="276" value="User Enters&lt;br&gt;Key" style="shape=parallelogram;perimeter=parallelogramPerimeter;whiteSpace=wrap;html=1;fixedSize=1;fillColor=#f8cecc;strokeColor=#b85450;fontColor=#000000;fontStyle=1" parent="1" vertex="1">
                    <mxGeometry x="-742" y="1170" width="140" height="40" as="geometry"/>
                </mxCell>
                <mxCell id="277" style="edgeStyle=none;html=1;fontSize=17;fontColor=#00CC00;entryX=1;entryY=0.5;entryDx=0;entryDy=0;startArrow=none;exitX=0.5;exitY=0;exitDx=0;exitDy=0;dashed=1;strokeWidth=2;" parent="1" source="315" target="276" edge="1">
                    <mxGeometry relative="1" as="geometry">
                        <mxPoint x="-612" y="1224" as="targetPoint"/>
                        <Array as="points">
                            <mxPoint x="-577" y="1190"/>
                        </Array>
                        <mxPoint x="-577" y="1265" as="sourcePoint"/>
                    </mxGeometry>
                </mxCell>
                <mxCell id="278" style="edgeStyle=none;html=1;exitX=0.5;exitY=1;exitDx=0;exitDy=0;entryX=0.5;entryY=0;entryDx=0;entryDy=0;fontSize=17;fontColor=#00CC00;strokeWidth=2;" parent="1" source="279" target="282" edge="1">
                    <mxGeometry relative="1" as="geometry"/>
                </mxCell>
                <mxCell id="361" style="edgeStyle=none;html=1;entryX=0.5;entryY=1;entryDx=0;entryDy=0;fontColor=#000000;strokeWidth=2;exitX=1;exitY=0.5;exitDx=0;exitDy=0;dashed=1;" parent="1" source="279" target="315" edge="1">
                    <mxGeometry relative="1" as="geometry">
                        <Array as="points">
                            <mxPoint x="-577" y="1308"/>
                        </Array>
                    </mxGeometry>
                </mxCell>
                <mxCell id="279" value="Validate" style="rounded=0;whiteSpace=wrap;html=1;fontColor=#ffffff;fillColor=#d80073;strokeColor=#A50040;" parent="1" vertex="1">
                    <mxGeometry x="-732" y="1288" width="120" height="40" as="geometry"/>
                </mxCell>
                <mxCell id="376" style="edgeStyle=none;jumpStyle=arc;html=1;exitX=0;exitY=1;exitDx=0;exitDy=0;fontColor=#000000;strokeWidth=2;entryX=0.334;entryY=0.998;entryDx=0;entryDy=0;entryPerimeter=0;" parent="1" source="282" target="314" edge="1">
                    <mxGeometry relative="1" as="geometry">
                        <mxPoint x="-528" y="1666" as="targetPoint"/>
                        <Array as="points">
                            <mxPoint x="-697" y="1717"/>
                            <mxPoint x="-528" y="1717"/>
                        </Array>
                    </mxGeometry>
                </mxCell>
                <mxCell id="377" style="edgeStyle=none;jumpStyle=arc;html=1;exitX=1;exitY=1;exitDx=0;exitDy=0;fontColor=#000000;strokeWidth=2;entryX=0.32;entryY=1.01;entryDx=0;entryDy=0;entryPerimeter=0;" parent="1" edge="1">
                    <mxGeometry relative="1" as="geometry">
                        <mxPoint x="-387" y="1661" as="targetPoint"/>
                        <mxPoint x="-651" y="1459" as="sourcePoint"/>
                        <Array as="points">
                            <mxPoint x="-651" y="1707"/>
                            <mxPoint x="-387" y="1707"/>
                        </Array>
                    </mxGeometry>
                </mxCell>
                <mxCell id="282" value="Pass" style="rounded=1;whiteSpace=wrap;html=1;fontColor=#ffffff;strokeColor=#005700;fillColor=#008a00;" parent="1" vertex="1">
                    <mxGeometry x="-697" y="1441" width="50" height="20" as="geometry"/>
                </mxCell>
                <mxCell id="283" style="edgeStyle=none;html=1;exitX=0.5;exitY=1;exitDx=0;exitDy=0;entryX=0.5;entryY=0;entryDx=0;entryDy=0;fontSize=17;fontColor=#00CC00;strokeWidth=2;" parent="1" target="287" edge="1">
                    <mxGeometry relative="1" as="geometry">
                        <mxPoint x="-872" y="1311" as="sourcePoint"/>
                    </mxGeometry>
                </mxCell>
                <mxCell id="284" value="User Enters&lt;br&gt;Key" style="shape=parallelogram;perimeter=parallelogramPerimeter;whiteSpace=wrap;html=1;fixedSize=1;fillColor=#f8cecc;strokeColor=#b85450;fontColor=#000000;fontStyle=1" parent="1" vertex="1">
                    <mxGeometry x="-942" y="1284" width="140" height="40" as="geometry"/>
                </mxCell>
                <mxCell id="285" style="edgeStyle=none;html=1;fontSize=17;fontColor=#00CC00;entryX=0.929;entryY=0.65;entryDx=0;entryDy=0;startArrow=none;dashed=1;strokeWidth=2;entryPerimeter=0;" parent="1" source="288" target="284" edge="1">
                    <mxGeometry relative="1" as="geometry">
                        <mxPoint x="-812" y="1291" as="targetPoint"/>
                        <Array as="points">
                            <mxPoint x="-787" y="1310"/>
                        </Array>
                    </mxGeometry>
                </mxCell>
                <mxCell id="286" style="edgeStyle=none;html=1;exitX=0.5;exitY=1;exitDx=0;exitDy=0;entryX=0.5;entryY=0;entryDx=0;entryDy=0;fontSize=17;fontColor=#00CC00;strokeWidth=2;" parent="1" source="287" target="290" edge="1">
                    <mxGeometry relative="1" as="geometry"/>
                </mxCell>
                <mxCell id="287" value="Validate" style="rounded=0;whiteSpace=wrap;html=1;fontColor=#ffffff;fillColor=#d80073;strokeColor=#A50040;" parent="1" vertex="1">
                    <mxGeometry x="-932" y="1361" width="120" height="40" as="geometry"/>
                </mxCell>
                <mxCell id="288" value="Fail" style="rounded=1;whiteSpace=wrap;html=1;fontColor=#ffffff;strokeColor=#6F0000;fillColor=#a20025;" parent="1" vertex="1">
                    <mxGeometry x="-812" y="1331" width="50" height="20" as="geometry"/>
                </mxCell>
                <mxCell id="289" value="" style="edgeStyle=none;html=1;exitX=1;exitY=0.5;exitDx=0;exitDy=0;fontSize=17;fontColor=#00CC00;entryX=0.5;entryY=1;entryDx=0;entryDy=0;endArrow=none;dashed=1;strokeWidth=2;" parent="1" source="287" target="288" edge="1">
                    <mxGeometry relative="1" as="geometry">
                        <mxPoint x="-812" y="1291" as="targetPoint"/>
                        <mxPoint x="-812" y="1381" as="sourcePoint"/>
                        <Array as="points">
                            <mxPoint x="-787" y="1381"/>
                        </Array>
                    </mxGeometry>
                </mxCell>
                <mxCell id="374" style="edgeStyle=none;jumpStyle=arc;html=1;fontColor=#000000;strokeWidth=2;entryX=0.409;entryY=0.995;entryDx=0;entryDy=0;entryPerimeter=0;" parent="1" target="314" edge="1">
                    <mxGeometry relative="1" as="geometry">
                        <mxPoint x="-517.6842105263158" y="1674.7368421052633" as="targetPoint"/>
                        <mxPoint x="-893" y="1462" as="sourcePoint"/>
                        <Array as="points">
                            <mxPoint x="-893" y="1739"/>
                            <mxPoint x="-521" y="1739"/>
                        </Array>
                    </mxGeometry>
                </mxCell>
                <mxCell id="375" style="edgeStyle=none;jumpStyle=arc;html=1;exitX=1;exitY=1;exitDx=0;exitDy=0;fontColor=#000000;strokeWidth=2;" parent="1" edge="1">
                    <mxGeometry relative="1" as="geometry">
                        <mxPoint x="-848" y="1459" as="sourcePoint"/>
                        <mxPoint x="-374" y="1661" as="targetPoint"/>
                        <Array as="points">
                            <mxPoint x="-848" y="1727"/>
                            <mxPoint x="-374" y="1727"/>
                        </Array>
                    </mxGeometry>
                </mxCell>
                <mxCell id="290" value="Pass" style="rounded=1;whiteSpace=wrap;html=1;fontColor=#ffffff;strokeColor=#005700;fillColor=#008a00;" parent="1" vertex="1">
                    <mxGeometry x="-897" y="1441" width="50" height="20" as="geometry"/>
                </mxCell>
                <mxCell id="291" style="edgeStyle=none;html=1;exitX=0.5;exitY=1;exitDx=0;exitDy=0;entryX=0.5;entryY=0;entryDx=0;entryDy=0;fontSize=17;fontColor=#00CC00;strokeWidth=2;" parent="1" target="295" edge="1">
                    <mxGeometry relative="1" as="geometry">
                        <mxPoint x="-1092" y="1311" as="sourcePoint"/>
                    </mxGeometry>
                </mxCell>
                <mxCell id="292" value="User Enters&lt;br&gt;Key" style="shape=parallelogram;perimeter=parallelogramPerimeter;whiteSpace=wrap;html=1;fixedSize=1;fillColor=#f8cecc;strokeColor=#b85450;fontColor=#000000;fontStyle=1" parent="1" vertex="1">
                    <mxGeometry x="-1162" y="1284" width="140" height="40" as="geometry"/>
                </mxCell>
                <mxCell id="293" style="edgeStyle=none;html=1;fontSize=17;fontColor=#00CC00;entryX=0.924;entryY=0.616;entryDx=0;entryDy=0;startArrow=none;dashed=1;strokeWidth=2;entryPerimeter=0;" parent="1" source="296" target="292" edge="1">
                    <mxGeometry relative="1" as="geometry">
                        <mxPoint x="-1032" y="1291" as="targetPoint"/>
                        <Array as="points">
                            <mxPoint x="-1007" y="1309"/>
                        </Array>
                    </mxGeometry>
                </mxCell>
                <mxCell id="294" style="edgeStyle=none;html=1;exitX=0.5;exitY=1;exitDx=0;exitDy=0;entryX=0.5;entryY=0;entryDx=0;entryDy=0;fontSize=17;fontColor=#00CC00;strokeWidth=2;" parent="1" source="295" edge="1">
                    <mxGeometry relative="1" as="geometry">
                        <mxPoint x="-1092" y="1441" as="targetPoint"/>
                    </mxGeometry>
                </mxCell>
                <mxCell id="295" value="Validate" style="rounded=0;whiteSpace=wrap;html=1;fontColor=#ffffff;fillColor=#d80073;strokeColor=#A50040;" parent="1" vertex="1">
                    <mxGeometry x="-1152" y="1361" width="120" height="40" as="geometry"/>
                </mxCell>
                <mxCell id="296" value="Fail" style="rounded=1;whiteSpace=wrap;html=1;fontColor=#ffffff;strokeColor=#6F0000;fillColor=#a20025;" parent="1" vertex="1">
                    <mxGeometry x="-1032" y="1331" width="50" height="20" as="geometry"/>
                </mxCell>
                <mxCell id="297" value="" style="edgeStyle=none;html=1;exitX=1;exitY=0.5;exitDx=0;exitDy=0;fontSize=17;fontColor=#00CC00;entryX=0.5;entryY=1;entryDx=0;entryDy=0;endArrow=none;dashed=1;strokeWidth=2;" parent="1" source="295" target="296" edge="1">
                    <mxGeometry relative="1" as="geometry">
                        <mxPoint x="-1032" y="1291" as="targetPoint"/>
                        <mxPoint x="-1032" y="1381" as="sourcePoint"/>
                        <Array as="points">
                            <mxPoint x="-1007" y="1381"/>
                        </Array>
                    </mxGeometry>
                </mxCell>
                <mxCell id="372" style="edgeStyle=none;jumpStyle=arc;html=1;entryX=0.5;entryY=1;entryDx=0;entryDy=0;fontColor=#000000;strokeWidth=2;exitX=0;exitY=1;exitDx=0;exitDy=0;" parent="1" source="298" target="314" edge="1">
                    <mxGeometry relative="1" as="geometry">
                        <Array as="points">
                            <mxPoint x="-1117" y="1779"/>
                            <mxPoint x="-512" y="1779"/>
                        </Array>
                    </mxGeometry>
                </mxCell>
                <mxCell id="373" style="edgeStyle=none;jumpStyle=arc;html=1;entryX=0.5;entryY=1;entryDx=0;entryDy=0;fontColor=#000000;strokeWidth=2;exitX=1;exitY=1;exitDx=0;exitDy=0;" parent="1" edge="1">
                    <mxGeometry relative="1" as="geometry">
                        <mxPoint x="-1064" y="1460" as="sourcePoint"/>
                        <mxPoint x="-362" y="1661" as="targetPoint"/>
                        <Array as="points">
                            <mxPoint x="-1064" y="1758"/>
                            <mxPoint x="-362" y="1758"/>
                        </Array>
                    </mxGeometry>
                </mxCell>
                <mxCell id="298" value="Pass" style="rounded=1;whiteSpace=wrap;html=1;fontColor=#ffffff;strokeColor=#005700;fillColor=#008a00;" parent="1" vertex="1">
                    <mxGeometry x="-1117" y="1441" width="50" height="20" as="geometry"/>
                </mxCell>
                <mxCell id="331" style="edgeStyle=none;jumpStyle=arc;html=1;entryX=0.5;entryY=0;entryDx=0;entryDy=0;fontSize=15;fontColor=#00CC00;strokeColor=default;strokeWidth=2;" parent="1" source="304" target="306" edge="1">
                    <mxGeometry relative="1" as="geometry"/>
                </mxCell>
                <mxCell id="304" value="Retrieve Data" style="shape=cylinder3;whiteSpace=wrap;html=1;boundedLbl=1;backgroundOutline=1;size=15;labelBorderColor=none;fontSize=12;fontColor=#ffffff;fillColor=#76608a;strokeColor=#432D57;" parent="1" vertex="1">
                    <mxGeometry x="-1122" y="1000" width="60" height="80" as="geometry"/>
                </mxCell>
                <mxCell id="333" style="edgeStyle=none;jumpStyle=arc;html=1;fontSize=15;fontColor=#00CC00;strokeColor=default;strokeWidth=2;" parent="1" source="306" target="292" edge="1">
                    <mxGeometry relative="1" as="geometry"/>
                </mxCell>
                <mxCell id="306" value="Display &lt;br&gt;leaderboard screen" style="shape=hexagon;perimeter=hexagonPerimeter2;whiteSpace=wrap;html=1;fixedSize=1;labelBorderColor=none;fontSize=12;fillColor=#1ba1e2;strokeColor=#006EAF;fontColor=#ffffff;" parent="1" vertex="1">
                    <mxGeometry x="-1152" y="1110" width="120" height="80" as="geometry"/>
                </mxCell>
                <mxCell id="332" style="edgeStyle=none;jumpStyle=arc;html=1;entryX=0.5;entryY=0;entryDx=0;entryDy=0;fontSize=15;fontColor=#00CC00;strokeColor=default;strokeWidth=2;" parent="1" source="307" target="309" edge="1">
                    <mxGeometry relative="1" as="geometry"/>
                </mxCell>
                <mxCell id="307" value="Retrieve Data" style="shape=cylinder3;whiteSpace=wrap;html=1;boundedLbl=1;backgroundOutline=1;size=15;labelBorderColor=none;fontSize=12;fontColor=#ffffff;fillColor=#76608a;strokeColor=#432D57;" parent="1" vertex="1">
                    <mxGeometry x="-902" y="1000" width="60" height="80" as="geometry"/>
                </mxCell>
                <mxCell id="309" value="Display statistic screen" style="shape=hexagon;perimeter=hexagonPerimeter2;whiteSpace=wrap;html=1;fixedSize=1;labelBorderColor=none;fontSize=12;fillColor=#1ba1e2;strokeColor=#006EAF;fontColor=#ffffff;" parent="1" vertex="1">
                    <mxGeometry x="-932" y="1110" width="120" height="80" as="geometry"/>
                </mxCell>
                <mxCell id="350" style="edgeStyle=none;jumpStyle=arc;html=1;entryX=0.5;entryY=0;entryDx=0;entryDy=0;fontSize=15;fontColor=#00CC00;strokeColor=default;strokeWidth=2;" parent="1" source="311" target="276" edge="1">
                    <mxGeometry relative="1" as="geometry"/>
                </mxCell>
                <mxCell id="311" value="Display instruction screen" style="shape=hexagon;perimeter=hexagonPerimeter2;whiteSpace=wrap;html=1;fixedSize=1;labelBorderColor=none;fontSize=12;fillColor=#1ba1e2;strokeColor=#006EAF;fontColor=#ffffff;" parent="1" vertex="1">
                    <mxGeometry x="-732" y="1040" width="120" height="80" as="geometry"/>
                </mxCell>
                <mxCell id="380" style="edgeStyle=none;jumpStyle=arc;html=1;entryX=1;entryY=0.75;entryDx=0;entryDy=0;fontColor=#000000;strokeWidth=2;fillColor=#ffcd28;gradientColor=#ffa500;strokeColor=#d79b00;exitX=0.5;exitY=0;exitDx=0;exitDy=0;" parent="1" source="314" target="44" edge="1">
                    <mxGeometry relative="1" as="geometry">
                        <Array as="points">
                            <mxPoint x="-512" y="1106"/>
                            <mxPoint x="-598" y="1106"/>
                            <mxPoint x="-598" y="690"/>
                        </Array>
                    </mxGeometry>
                </mxCell>
                <mxCell id="314" value="Connector to Quiz Hub Menu" style="ellipse;whiteSpace=wrap;html=1;aspect=fixed;fontSize=15;fontColor=#000000;fillColor=#e3c800;strokeColor=#B09500;" parent="1" vertex="1">
                    <mxGeometry x="-562" y="1564" width="100" height="100" as="geometry"/>
                </mxCell>
                <mxCell id="316" style="edgeStyle=none;html=1;exitX=0.5;exitY=1;exitDx=0;exitDy=0;fontSize=11;fontColor=#FFFF00;entryX=0.5;entryY=0;entryDx=0;entryDy=0;strokeWidth=2;" parent="1" source="317" target="319" edge="1">
                    <mxGeometry relative="1" as="geometry">
                        <Array as="points">
                            <mxPoint x="-872" y="751"/>
                        </Array>
                    </mxGeometry>
                </mxCell>
                <mxCell id="317" value="User Enters&lt;br&gt;Key" style="shape=parallelogram;perimeter=parallelogramPerimeter;whiteSpace=wrap;html=1;fixedSize=1;fillColor=#f8cecc;strokeColor=#b85450;fontColor=#000000;fontStyle=1" parent="1" vertex="1">
                    <mxGeometry x="-942" y="671" width="140" height="40" as="geometry"/>
                </mxCell>
                <mxCell id="318" style="edgeStyle=none;html=1;fontColor=#000000;entryX=0;entryY=0.5;entryDx=0;entryDy=0;strokeWidth=2;dashed=1;exitX=1;exitY=0.5;exitDx=0;exitDy=0;" parent="1" source="319" target="321" edge="1">
                    <mxGeometry relative="1" as="geometry">
                        <mxPoint x="-642" y="901" as="targetPoint"/>
                        <Array as="points">
                            <mxPoint x="-742" y="801"/>
                        </Array>
                    </mxGeometry>
                </mxCell>
                <mxCell id="319" value="Validate" style="rounded=0;whiteSpace=wrap;html=1;fontColor=#ffffff;fillColor=#d80073;strokeColor=#A50040;" parent="1" vertex="1">
                    <mxGeometry x="-932" y="781" width="120" height="40" as="geometry"/>
                </mxCell>
                <mxCell id="320" style="edgeStyle=none;html=1;entryX=1;entryY=0.5;entryDx=0;entryDy=0;strokeWidth=2;dashed=1;" parent="1" source="321" target="317" edge="1">
                    <mxGeometry relative="1" as="geometry">
                        <Array as="points">
                            <mxPoint x="-697" y="691"/>
                        </Array>
                    </mxGeometry>
                </mxCell>
                <mxCell id="321" value="Fail" style="rounded=1;whiteSpace=wrap;html=1;fontColor=#ffffff;strokeColor=#6F0000;fillColor=#a20025;" parent="1" vertex="1">
                    <mxGeometry x="-722" y="791" width="50" height="20" as="geometry"/>
                </mxCell>
                <mxCell id="326" style="edgeStyle=none;jumpStyle=arc;html=1;exitX=0;exitY=1;exitDx=0;exitDy=0;fontSize=15;fontColor=#00CC00;strokeColor=default;strokeWidth=2;entryX=0.5;entryY=0;entryDx=0;entryDy=0;entryPerimeter=0;" parent="1" source="323" target="304" edge="1">
                    <mxGeometry relative="1" as="geometry">
                        <mxPoint x="-897" y="932.5999999999999" as="targetPoint"/>
                        <Array as="points">
                            <mxPoint x="-1092" y="882"/>
                        </Array>
                    </mxGeometry>
                </mxCell>
                <mxCell id="327" style="edgeStyle=none;jumpStyle=arc;html=1;fontSize=15;fontColor=#00CC00;strokeColor=default;strokeWidth=2;" parent="1" source="323" target="307" edge="1">
                    <mxGeometry relative="1" as="geometry"/>
                </mxCell>
                <mxCell id="334" style="edgeStyle=none;jumpStyle=arc;html=1;exitX=1;exitY=1;exitDx=0;exitDy=0;entryX=0.5;entryY=0;entryDx=0;entryDy=0;fontSize=15;fontColor=#00CC00;strokeColor=default;strokeWidth=2;" parent="1" source="323" target="311" edge="1">
                    <mxGeometry relative="1" as="geometry">
                        <Array as="points">
                            <mxPoint x="-672" y="882"/>
                        </Array>
                    </mxGeometry>
                </mxCell>
                <mxCell id="362" style="edgeStyle=none;html=1;fontColor=#000000;strokeWidth=2;entryX=0.5;entryY=0;entryDx=0;entryDy=0;exitX=0;exitY=0;exitDx=0;exitDy=0;" parent="1" source="323" target="207" edge="1">
                    <mxGeometry relative="1" as="geometry">
                        <mxPoint x="-1415.1111111111113" y="802.4444444444443" as="targetPoint"/>
                        <Array as="points">
                            <mxPoint x="-1423" y="862"/>
                        </Array>
                    </mxGeometry>
                </mxCell>
                <mxCell id="370" style="edgeStyle=none;html=1;entryX=0;entryY=0.5;entryDx=0;entryDy=0;fontColor=#000000;strokeWidth=2;exitX=1;exitY=0;exitDx=0;exitDy=0;jumpStyle=arc;" parent="1" source="323" target="20" edge="1">
                    <mxGeometry relative="1" as="geometry">
                        <Array as="points">
                            <mxPoint x="-642" y="862"/>
                            <mxPoint x="-642" y="260"/>
                        </Array>
                    </mxGeometry>
                </mxCell>
                <mxCell id="323" value="Pass" style="rounded=1;whiteSpace=wrap;html=1;fontColor=#ffffff;strokeColor=#005700;fillColor=#008a00;" parent="1" vertex="1">
                    <mxGeometry x="-897" y="862" width="50" height="20" as="geometry"/>
                </mxCell>
                <mxCell id="324" style="edgeStyle=none;html=1;fontColor=#000000;entryX=0.5;entryY=0;entryDx=0;entryDy=0;strokeWidth=2;" parent="1" edge="1">
                    <mxGeometry relative="1" as="geometry">
                        <mxPoint x="-872.4000000000001" y="861" as="targetPoint"/>
                        <Array as="points">
                            <mxPoint x="-872.4000000000001" y="821"/>
                            <mxPoint x="-872.4000000000001" y="837"/>
                            <mxPoint x="-872.4000000000001" y="861"/>
                        </Array>
                        <mxPoint x="-872.4000000000001" y="821" as="sourcePoint"/>
                    </mxGeometry>
                </mxCell>
                <mxCell id="315" value="Fail" style="rounded=1;whiteSpace=wrap;html=1;fontColor=#ffffff;strokeColor=#6F0000;fillColor=#a20025;" parent="1" vertex="1">
                    <mxGeometry x="-602" y="1241" width="50" height="20" as="geometry"/>
                </mxCell>
                <mxCell id="364" value="A" style="edgeLabel;html=1;align=center;verticalAlign=middle;resizable=0;points=[];fontStyle=1;fontSize=17;fontColor=#00CC00;" parent="1" vertex="1" connectable="0">
                    <mxGeometry x="-510.99571428571426" y="507" as="geometry">
                        <mxPoint x="63" y="66" as="offset"/>
                    </mxGeometry>
                </mxCell>
                <mxCell id="365" value="B" style="edgeLabel;html=1;align=center;verticalAlign=middle;resizable=0;points=[];fontStyle=1;fontSize=17;fontColor=#00CC00;" parent="1" vertex="1" connectable="0">
                    <mxGeometry x="-397.99571428571426" y="508" as="geometry">
                        <mxPoint x="63" y="66" as="offset"/>
                    </mxGeometry>
                </mxCell>
                <mxCell id="366" value="A" style="edgeLabel;html=1;align=center;verticalAlign=middle;resizable=0;points=[];fontStyle=1;fontSize=17;fontColor=#00CC00;" parent="1" vertex="1" connectable="0">
                    <mxGeometry x="-995.9957142857143" y="795" as="geometry">
                        <mxPoint x="63" y="66" as="offset"/>
                    </mxGeometry>
                </mxCell>
                <mxCell id="367" value="B" style="edgeLabel;html=1;align=center;verticalAlign=middle;resizable=0;points=[];fontStyle=1;fontSize=17;fontColor=#00CC00;" parent="1" vertex="1" connectable="0">
                    <mxGeometry x="-995.9957142857143" y="813" as="geometry">
                        <mxPoint x="63" y="66" as="offset"/>
                    </mxGeometry>
                </mxCell>
                <mxCell id="368" value="C" style="edgeLabel;html=1;align=center;verticalAlign=middle;resizable=0;points=[];fontStyle=1;fontSize=17;fontColor=#00CC00;" parent="1" vertex="1" connectable="0">
                    <mxGeometry x="-935.9957142857143" y="845" as="geometry">
                        <mxPoint x="63" y="66" as="offset"/>
                    </mxGeometry>
                </mxCell>
                <mxCell id="369" value="D" style="edgeLabel;html=1;align=center;verticalAlign=middle;resizable=0;points=[];fontStyle=1;fontSize=17;fontColor=#00CC00;" parent="1" vertex="1" connectable="0">
                    <mxGeometry x="-876.9957142857143" y="814" as="geometry">
                        <mxPoint x="63" y="66" as="offset"/>
                    </mxGeometry>
                </mxCell>
                <mxCell id="371" value="E" style="edgeLabel;html=1;align=center;verticalAlign=middle;resizable=0;points=[];fontStyle=1;fontSize=17;fontColor=#00CC00;" parent="1" vertex="1" connectable="0">
                    <mxGeometry x="-876.9957142857143" y="795" as="geometry">
                        <mxPoint x="63" y="66" as="offset"/>
                    </mxGeometry>
                </mxCell>
            </root>
        </mxGraphModel>
    </diagram>
</mxfile>